<svg width="29" height="29" viewBox="0 0 29 29" fill="none" xmlns="http://www.w3.org/2000/svg">
<path d="M20.3969 0.00180176C20.3417 0.00594038 20.287 0.0154445 20.2336 0.0301798C20.1246 0.0584527 20.0222 0.108055 19.9325 0.176122C19.8427 0.244189 19.7673 0.329372 19.7106 0.426753C19.3573 1.03787 19.0794 1.67884 18.8744 2.33631C18.8696 2.35008 18.8652 2.36397 18.8612 2.37797C18.3628 4.00317 18.3181 5.72782 18.7362 7.36014C17.4928 7.04092 16.2037 6.99399 14.9517 7.20351C13.0678 7.5188 11.2727 8.4153 9.84626 9.84122C9.84401 9.84121 9.84175 9.84121 9.83949 9.84122C7.4676 12.2154 6.56378 15.6203 7.36089 18.7358C6.52219 18.5211 5.65951 18.4291 4.79734 18.4575C3.98154 18.4843 3.16688 18.6189 2.37704 18.8608C2.36249 18.8648 2.34804 18.8692 2.33372 18.874C1.67726 19.0785 1.03858 19.3573 0.428132 19.7105C0.331006 19.7663 0.245817 19.8407 0.177431 19.9294C0.109045 20.0181 0.0587998 20.1195 0.0295651 20.2276C0.000330404 20.3358 -0.00732138 20.4486 0.00704665 20.5597C0.0214147 20.6708 0.0575211 20.778 0.113304 20.8752C0.169082 20.9724 0.243444 21.0576 0.332145 21.126C0.420846 21.1944 0.522149 21.2446 0.630269 21.2739C0.73839 21.3031 0.851209 21.3108 0.962287 21.2964C1.07336 21.282 1.18052 21.2459 1.27765 21.1901C1.63924 20.981 2.01231 20.8058 2.39368 20.6636L8.33199 26.6039C8.1896 26.9854 8.01488 27.3585 7.80562 27.7203C7.74958 27.8175 7.71327 27.9248 7.69876 28.0361C7.68425 28.1474 7.69184 28.2605 7.72108 28.3688C7.75033 28.4772 7.80066 28.5787 7.86919 28.6675C7.93772 28.7564 8.0231 28.8309 8.12045 28.8867C8.21757 28.9425 8.32473 28.9786 8.43581 28.993C8.54689 29.0073 8.65971 28.9997 8.76783 28.9704C8.87595 28.9412 8.97725 28.8909 9.06596 28.8225C9.15466 28.7541 9.22902 28.6689 9.2848 28.5717C9.63833 27.9605 9.91907 27.3197 10.1243 26.6622C10.1311 26.6435 10.1372 26.6246 10.1427 26.6055C10.6367 24.9867 10.6792 23.2675 10.2643 21.6417C13.3792 22.4383 16.7838 21.5287 19.1576 19.1556C19.1696 19.1438 19.1813 19.1315 19.1926 19.119C20.2767 18.0228 21.0505 16.7117 21.4913 15.3115C21.5071 15.272 21.5199 15.2313 21.5296 15.1899C22.0079 13.5954 22.0564 11.8914 21.6412 10.266C23.2743 10.6833 24.9998 10.6368 26.6251 10.136C26.6351 10.1334 26.6451 10.1306 26.6551 10.1277C27.3142 9.92221 27.9564 9.64241 28.569 9.28786C28.667 9.23206 28.753 9.15738 28.8219 9.06812C28.8909 8.97887 28.9415 8.87682 28.9708 8.76788C29 8.65894 29.0074 8.54528 28.9925 8.43346C28.9776 8.32165 28.9406 8.2139 28.8838 8.11646C28.77 7.92138 28.5836 7.77937 28.3653 7.72159C28.1471 7.6638 27.9148 7.69495 27.7194 7.80821C27.3578 8.01753 26.9848 8.19229 26.6034 8.33475L20.6651 2.3946C20.8073 2.0129 20.9806 1.63844 21.1898 1.27653C21.2456 1.17937 21.2817 1.07218 21.296 0.961066C21.3104 0.849952 21.3028 0.737095 21.2735 0.62894C21.2443 0.520784 21.194 0.419448 21.1257 0.330718C21.0573 0.241988 20.9721 0.167601 20.875 0.111805C20.7298 0.0291086 20.5635 -0.00916697 20.3969 0.00180176ZM20.2253 4.37244L24.6261 8.77475C23.3527 8.87939 22.0628 8.65498 20.8816 8.12156C20.3466 6.93934 20.1218 5.64797 20.2253 4.37244ZM16.3042 8.79807C17.3828 8.80259 18.4624 9.06986 19.4774 9.52623C20.005 10.7039 20.218 11.9774 20.122 13.2254L15.7212 8.82307C15.915 8.8063 16.1099 8.79743 16.3042 8.79807ZM13.7656 9.28462L19.6939 15.2149C19.4232 15.9604 19.0305 16.6687 18.5179 17.3127L11.6868 10.4793C12.3247 9.96705 13.027 9.56754 13.7656 9.28462ZM10.4825 11.6874L17.3119 18.5191C16.668 19.0323 15.9584 19.4248 15.2131 19.6955L9.30645 13.7852C9.57705 13.0402 9.96982 12.3312 10.4825 11.6874ZM8.87837 15.7698L13.2309 20.1237C11.9806 20.2204 10.7047 20.007 9.52467 19.4772C8.99495 18.2968 8.78176 17.0205 8.87837 15.7698ZM4.90394 20.1987C6.00388 20.1881 7.10263 20.421 8.12046 20.8819C8.65362 22.0632 8.87789 23.3525 8.77343 24.626L4.37424 20.2254C4.55064 20.2112 4.72727 20.2007 4.90394 20.1987Z" fill="#18924A"/>
</svg>
