<svg width="28" height="28" viewBox="0 0 28 28" fill="none" xmlns="http://www.w3.org/2000/svg">
<path d="M13.834 0C12.8483 0 11.9405 0.481141 11.1896 1.23595C10.4387 1.99073 9.80842 3.02566 9.28319 4.27326C9.14701 4.59489 9.01991 4.93339 8.89932 5.28226C8.06154 5.12144 7.25746 5.02807 6.50265 5.01251C4.36148 4.96582 2.64309 5.54942 1.85325 6.91765C1.36043 7.771 1.3241 8.79815 1.60166 9.82657C1.87919 10.8537 2.46019 11.9159 3.27855 12.9949C3.49123 13.275 3.72078 13.5564 3.9646 13.8379C3.52884 14.3411 3.14106 14.8482 2.80647 15.354C2.57951 15.2658 2.3331 15.2178 2.07503 15.2178C0.937647 15.2178 0 16.1554 0 17.2928C0 18.2149 0.61474 19.0034 1.45252 19.2706C1.47457 19.7984 1.60037 20.299 1.84807 20.7425C1.85066 20.7451 1.85196 20.7477 1.85326 20.7503C2.34609 21.6037 3.2176 22.1484 4.24602 22.422C5.27447 22.6957 6.48575 22.7229 7.82934 22.5543C8.17692 22.5102 8.53485 22.4531 8.89929 22.3831C9.0199 22.7333 9.1483 23.0718 9.28448 23.3947C9.80972 24.6423 10.44 25.6772 11.1909 26.432C11.9405 27.1855 12.8484 27.668 13.834 27.668C14.8196 27.668 15.7274 27.1868 16.4783 26.432C17.2292 25.6772 17.8595 24.6423 18.3848 23.3947C18.5209 23.0718 18.648 22.7333 18.77 22.3831C19.1344 22.4532 19.4936 22.5115 19.8412 22.5543C21.1835 22.7229 22.3935 22.6957 23.4219 22.422C24.4503 22.1484 25.3218 21.605 25.8146 20.7503C25.8159 20.7477 25.8172 20.7451 25.8185 20.7438C25.8198 20.7412 25.8198 20.7386 25.8211 20.7373C26.8534 20.6219 27.6679 19.7362 27.6679 18.6753C27.6679 17.5379 26.7302 16.6003 25.5929 16.6003H25.589C25.1506 15.6834 24.5125 14.7483 23.7137 13.8249C23.9549 13.5474 24.1792 13.2698 24.3894 12.9923C25.2064 11.9146 25.7874 10.8524 26.0663 9.82399C26.3438 8.79683 26.3075 7.76971 25.8147 6.91506C25.0249 5.54684 23.3065 4.96324 21.1653 5.00992C20.4105 5.02678 19.6077 5.11756 18.7712 5.27838C18.4807 4.44189 18.1448 3.67543 17.7635 2.99714C17.9036 2.7209 17.984 2.40707 17.984 2.07506C17.984 0.937682 17.0463 3.48287e-05 15.909 3.48287e-05C15.577 3.48287e-05 15.2631 0.0804432 14.983 0.221804C14.6121 0.0778503 14.2243 0 13.834 0ZM13.834 1.3838C13.8729 1.3838 13.9118 1.38898 13.952 1.39158C13.8755 1.60686 13.834 1.8364 13.834 2.07504C13.834 3.21242 14.7716 4.15007 15.909 4.15007C16.1956 4.15007 16.468 4.08912 16.717 3.98277C16.966 4.4678 17.1955 5.0086 17.403 5.5987C16.2462 5.90866 15.0453 6.33794 13.834 6.86706C12.6201 6.33662 11.4153 5.90737 10.2573 5.59741C10.3546 5.32376 10.4544 5.06049 10.5595 4.81019C11.0354 3.67932 11.5983 2.78964 12.1715 2.21382C12.7448 1.63799 13.2919 1.3838 13.834 1.3838ZM6.47409 6.3964C7.09531 6.40937 7.77489 6.48848 8.49205 6.62206C8.18598 7.76592 7.95513 9.02133 7.806 10.3505C6.73605 11.139 5.76211 11.969 4.91394 12.8185C4.72459 12.5967 4.54561 12.3775 4.3809 12.1596C3.63907 11.1818 3.15016 10.2506 2.93745 9.46598C2.72476 8.68135 2.78182 8.07959 3.05287 7.61014C3.48086 6.86831 4.59875 6.35606 6.47551 6.39756L6.47409 6.3964ZM21.1939 6.3964H21.1951C23.0704 6.3549 24.1871 6.86718 24.6151 7.60898C24.8862 8.07847 24.9419 8.68023 24.7306 9.46353C24.5179 10.2482 24.0276 11.1806 23.2858 12.1585C23.1224 12.3738 22.946 12.5903 22.7606 12.8082C21.9124 11.9613 20.9397 11.1326 19.8672 10.3454C19.7207 9.02906 19.4885 7.77624 19.1799 6.62064C19.8957 6.48706 20.574 6.40795 21.1939 6.39498L21.1939 6.3964ZM9.84726 6.92943C10.5852 7.12656 11.353 7.37688 12.1337 7.67386C11.6616 7.91637 11.1895 8.17186 10.7214 8.44291C10.2532 8.71266 9.79537 8.99278 9.35055 9.28069C9.48413 8.44938 9.65013 7.66217 9.84726 6.92943ZM17.8154 6.93073C18.0138 7.66868 18.185 8.45457 18.3173 9.28199C17.8711 8.99537 17.4146 8.71396 16.9465 8.44291C16.4783 8.17316 16.0075 7.91639 15.5367 7.67386C16.3149 7.37687 17.08 7.12787 17.8154 6.93073ZM13.834 8.38972C14.6419 8.76194 15.4538 9.17824 16.2553 9.64122C17.0581 10.1042 17.8245 10.5996 18.5482 11.1132C18.6312 11.9977 18.6766 12.9094 18.6766 13.8341C18.6766 14.7691 18.6312 15.6796 18.5508 16.5562C17.831 17.0646 17.0658 17.56 16.2553 18.0269C15.4447 18.4951 14.6341 18.9101 13.8339 19.2797C13.0337 18.9101 12.2232 18.4938 11.4126 18.0256C10.6021 17.5574 9.83691 17.0646 9.11712 16.5562C9.03801 15.6796 8.99262 14.7691 8.99262 13.8341C8.99262 12.9003 9.03671 11.9925 9.11712 11.1158C9.84338 10.6009 10.6111 10.1042 11.4139 9.64122C12.2141 9.17824 13.026 8.76194 13.8352 8.38972H13.834ZM7.65171 12.2274C7.62578 12.7565 7.60891 13.2895 7.60891 13.8342C7.60891 14.3802 7.62577 14.9145 7.65171 15.4437C6.99939 14.9132 6.40152 14.375 5.86589 13.8394C6.4054 13.2986 7.00328 12.7578 7.65171 12.2287V12.2274ZM20.0176 12.2351C20.6647 12.7643 21.2613 13.3038 21.7982 13.8433C21.2639 14.3789 20.666 14.9133 20.015 15.4424C20.0422 14.9146 20.0591 14.3802 20.0591 13.8342C20.0591 13.296 20.0448 12.763 20.0189 12.2364L20.0176 12.2351ZM4.91799 14.8575C5.75447 15.6939 6.72844 16.5188 7.80487 17.3125C7.95401 18.6457 8.18355 19.9037 8.49092 21.0502C8.2056 21.1033 7.92549 21.1487 7.65444 21.1825C6.43664 21.3355 5.38489 21.294 4.60026 21.0852C3.81822 20.8777 3.32543 20.5301 3.05305 20.0619C2.92077 19.8246 2.84685 19.5458 2.83258 19.219C3.60164 18.9142 4.15024 18.1633 4.15024 17.2931C4.15024 16.917 4.04779 16.5629 3.86881 16.2568C4.16321 15.8003 4.51466 15.3321 4.91801 14.8588L4.91799 14.8575ZM22.7427 14.8613C23.3989 15.6265 23.9202 16.3761 24.2769 17.0751C23.8152 17.459 23.5182 18.0348 23.5182 18.6755C23.5182 19.3667 23.8658 19.9841 24.3923 20.3615C24.1018 20.6792 23.6712 20.9256 23.0669 21.0851C22.2822 21.2939 21.2305 21.3354 20.0127 21.1824C19.7416 21.1487 19.4615 21.1033 19.1762 21.0501C19.4836 19.9037 19.7131 18.6457 19.8622 17.3124C20.9361 16.52 21.9075 15.6965 22.7439 14.8613L22.7427 14.8613ZM18.3164 18.3799C18.1828 19.2138 18.0168 20.0036 17.8197 20.7377C17.0856 20.5419 16.3179 20.2915 15.5294 19.9907C16.0001 19.7495 16.4722 19.4979 16.9456 19.2242C17.4176 18.9519 17.8715 18.6678 18.3164 18.3799ZM9.34826 18.3812C9.79308 18.6678 10.247 18.9505 10.7191 19.2229C11.1924 19.4966 11.6645 19.7482 12.1366 19.9907C11.3481 20.2916 10.5803 20.5432 9.84497 20.739C9.64654 20.005 9.48182 19.2152 9.34826 18.3812ZM13.8343 20.7947C15.0625 21.3316 16.2673 21.7622 17.4123 22.0683C17.3151 22.3419 17.2139 22.6065 17.1088 22.8581C16.6329 23.989 16.07 24.8786 15.4968 25.4545C14.9236 26.0303 14.3763 26.2845 13.8342 26.2845C13.2921 26.2845 12.7448 26.0303 12.1716 25.4545C11.5983 24.8786 11.0368 23.989 10.5595 22.8581C10.4532 22.6065 10.3533 22.3419 10.2561 22.0683C11.4025 21.7609 12.6063 21.3303 13.8343 20.7947Z" fill="#6DB0DC"/>
</svg>
