<svg width="26" height="21" viewBox="0 0 26 21" fill="none" xmlns="http://www.w3.org/2000/svg">
<path fill-rule="evenodd" clip-rule="evenodd" d="M24.2069 2.13872L25.5463 2.12201C25.6665 2.12108 25.7812 2.16935 25.8664 2.2566C25.9525 2.34384 26 2.46265 26 2.58609V17.6584C26 17.7838 25.9507 17.9035 25.8646 17.9917C25.7777 18.0789 25.6611 18.1262 25.5401 18.1225C21.4285 18.0093 17.316 18.7657 13.2044 20.9478C13.1408 20.9813 13.0708 20.9989 13 20.9989C13 20.9989 12.9292 21.01 12.8234 20.9618L12.6988 20.8968C8.61945 18.7546 4.54014 18.0102 0.459931 18.1225C0.338897 18.1262 0.222345 18.0789 0.135379 17.9917C0.0493104 17.9035 0 17.7838 0 17.6584V2.58609C0 2.46265 0.0484138 2.34291 0.133586 2.2566C0.218759 2.16935 0.334414 2.12108 0.453655 2.12201L1.7931 2.13965V15.2963C1.7931 15.5469 1.89083 15.7864 2.06386 15.9608C2.23779 16.1363 2.47179 16.2309 2.71386 16.2244C5.98 16.1344 9.24704 16.7284 12.5141 18.4437L12.7167 18.4938L12.5257 18.4502L12.7185 18.4947L12.5383 18.4557L12.5428 18.4576C12.6683 18.5346 12.8144 18.581 12.9686 18.5866L13.0529 18.5857C13.1766 18.5773 13.2986 18.5439 13.4088 18.4845C16.701 16.7377 19.994 16.1335 23.2861 16.2244C23.5282 16.2309 23.7622 16.1363 23.9361 15.9608C24.1092 15.7864 24.2069 15.5469 24.2069 15.2963V2.13872ZM13.4483 2.08767C16.7422 0.402136 20.0361 -0.125986 23.3301 0.0243756C23.5694 0.0345853 23.7586 0.239708 23.7586 0.487526V15.2963C23.7586 15.4216 23.7093 15.5413 23.6232 15.6286C23.5363 15.7158 23.4197 15.7632 23.2987 15.7604C20.0155 15.6694 16.7314 16.2569 13.4483 17.9443V2.08767ZM12.5517 17.9443C9.26855 16.2569 5.98448 15.6694 2.70131 15.7604C2.58028 15.7632 2.46372 15.7158 2.37676 15.6286C2.29069 15.5413 2.24138 15.4216 2.24138 15.2963V0.487526C2.24138 0.239708 2.43055 0.0345853 2.66993 0.0243756C5.96386 -0.125986 9.25779 0.402136 12.5517 2.08767V17.9443ZM10.712 11.8862C8.72614 10.8263 6.74117 10.4188 4.75531 10.5228C4.50876 10.5358 4.31779 10.7539 4.33034 11.0091C4.3429 11.2653 4.55359 11.4621 4.80103 11.4491C6.63448 11.3535 8.46703 11.7322 10.3005 12.7114C10.521 12.8283 10.7909 12.7392 10.9048 12.5109C11.0177 12.2835 10.9317 12.0032 10.712 11.8862ZM15.6995 12.7114C17.533 11.7322 19.3655 11.3535 21.199 11.4491C21.4464 11.4621 21.6571 11.2653 21.6697 11.0091C21.6822 10.7539 21.4912 10.5358 21.2447 10.5228C19.2588 10.4188 17.2739 10.8263 15.288 11.8862C15.0683 12.0032 14.9823 12.2835 15.0952 12.5109C15.2091 12.7392 15.479 12.8283 15.6995 12.7114ZM15.6995 9.40156C17.533 8.42235 19.3655 8.04366 21.199 8.13926C21.4464 8.15225 21.6571 7.95548 21.6697 7.69931C21.6822 7.44407 21.4912 7.22595 21.2447 7.21296C19.2588 7.109 17.2739 7.51647 15.288 8.57642C15.0683 8.69337 14.9823 8.97367 15.0952 9.20107C15.2091 9.4294 15.479 9.5185 15.6995 9.40156ZM10.712 8.57642C8.72614 7.51647 6.74117 7.109 4.75531 7.21296C4.50876 7.22595 4.31779 7.44407 4.33034 7.69931C4.3429 7.95548 4.55359 8.15225 4.80103 8.13926C6.63448 8.04366 8.46703 8.42235 10.3005 9.40156C10.521 9.5185 10.7909 9.4294 10.9048 9.20107C11.0177 8.97367 10.9317 8.69337 10.712 8.57642ZM10.712 5.26661C8.72614 4.20666 6.74117 3.79919 4.75531 3.90315C4.50876 3.91614 4.31779 4.13426 4.33034 4.3895C4.3429 4.64567 4.55359 4.84244 4.80103 4.82945C6.63448 4.73385 8.46703 5.11254 10.3005 6.09174C10.521 6.20869 10.7909 6.11959 10.9048 5.89126C11.0177 5.66386 10.9317 5.38356 10.712 5.26661ZM15.6995 6.09174C17.533 5.11254 19.3655 4.73385 21.199 4.82945C21.4464 4.84244 21.6571 4.64567 21.6697 4.3895C21.6822 4.13426 21.4912 3.91614 21.2447 3.90315C19.2588 3.79919 17.2739 4.20666 15.288 5.26661C15.0683 5.38356 14.9823 5.66386 15.0952 5.89126C15.2091 6.11959 15.479 6.20869 15.6995 6.09174Z" fill="#E3B128"/>
</svg>
