<svg width="643" height="643" viewBox="0 0 643 643" fill="none" xmlns="http://www.w3.org/2000/svg">
<path d="M494.29 292.708C514.716 292.204 535.185 292.665 555.456 296.625C554.298 296.625 553.135 296.641 551.978 296.625C533.235 296.373 514.491 296.121 495.748 295.869C494.483 295.853 493.411 295.8 492.988 297.573C491.402 304.207 489.612 310.787 487.849 317.603C501.77 319.275 515.847 321.814 529.253 327.36C528.128 327.135 527.013 326.873 525.883 326.685C513.382 324.606 500.892 322.506 488.375 320.55C487.442 320.405 485.872 321.016 485.395 321.777C481.703 327.628 478.21 333.603 474.657 339.54C474.523 339.76 474.459 340.017 474.218 340.601C486.462 342.948 498.218 346.511 509.165 352.491C507.831 352.062 506.513 351.585 505.168 351.216C495.014 348.435 484.849 345.675 474.689 342.905C473.452 342.567 472.471 342.449 471.464 343.751C462.724 355.047 452.554 364.901 441.135 373.48C440.798 373.731 440.514 374.053 439.994 374.546C450.089 381.179 457.28 390.428 464.45 399.628C476.115 414.599 482.732 432.003 488.305 449.922C492.656 463.918 495.383 478.128 495.555 492.804C495.56 493.313 495.678 493.817 495.844 495.13C501.352 492.167 507.005 490.077 511.517 486.53C526.022 475.116 535.115 460.092 538.4 441.884C540.034 432.839 538.855 423.714 537.473 414.691C536.514 408.427 535.496 402.168 534.413 395.92C533.036 387.974 533.261 380.065 535.094 372.247C538.389 358.187 543.41 344.925 553.291 333.967C559.276 327.334 566.344 322.586 575.335 321.263C582.917 320.148 589.91 321.354 594.829 327.885C599.865 334.573 601.484 341.989 598.531 350.096C596.795 354.865 594.834 359.58 593.468 364.456C589.894 377.252 590.649 390.219 592.01 403.272C593.028 413.019 594.153 422.921 593.51 432.641C591.683 460.29 580.999 484.199 561.307 504.009C544.31 521.112 523.916 530.8 499.991 533.153C495.201 533.624 490.368 533.704 485.578 534.176C484.5 534.283 483.343 535.076 482.502 535.853C458.839 557.619 431.469 567.29 399.314 561.503C392.889 560.346 387.429 557.201 382.381 553.273C381.015 552.212 380.067 550.615 378.882 549.211C378.872 549.211 378.636 549.206 378.593 549.292C371.954 562.141 360.552 567.73 346.957 569.348C335.984 570.656 324.983 569.868 314.336 566.696C310.81 565.645 307.402 563.845 304.289 561.846C299.199 558.583 296.873 553.568 296.627 547.561C296.605 547.068 296.546 546.581 296.503 546.072C286.494 557.721 273.221 558.428 259.67 557.051C246.939 555.759 235.772 550.701 227.225 540.713C226.781 540.193 225.607 540.086 224.798 540.14C220.833 540.408 216.804 541.431 212.924 541.019C203.242 539.995 196.988 528.619 201.045 519.778C202.368 516.89 204.404 514.323 206.14 511.628C207.11 510.128 208.193 508.702 209.13 507.186C211.488 503.371 211.451 499.599 208.782 495.928C208.52 495.569 208.289 495.183 208.01 494.83C195.161 478.465 195.552 460.997 203.826 442.956C204.774 440.887 204.892 439.023 204.731 436.81C203.981 426.672 203.418 416.518 202.958 406.364C202.883 404.686 202.524 403.963 200.921 403.272C187.59 397.48 174.242 391.703 161.05 385.605C151.48 381.185 142.735 375.339 134.537 368.711C126.575 362.27 119.759 354.79 114.502 345.97C113.586 344.437 112.734 344.137 111.084 344.716C96.7608 349.774 82.5612 355.09 69.9691 363.845C81.7628 352.378 96.7661 347.063 111.973 342.273C109.985 337.595 108.115 332.976 106.009 328.464C105.715 327.832 104.225 327.334 103.389 327.451C96.3321 328.448 89.1895 329.166 82.2718 330.811C72.3857 333.169 62.6657 336.234 52.876 339.004C51.6972 339.336 50.5291 339.701 49.2913 339.797C66.8238 331.417 85.1332 325.914 104.584 325.287C103.4 319.301 102.333 313.525 101.037 307.802C100.887 307.138 99.5471 306.458 98.663 306.281C86.6121 303.902 74.4058 303.119 62.1567 303.2C55.6516 303.243 49.1466 303.752 42.8667 304.041C46.2799 302.23 60.576 300.295 71.4105 300.906C81.0877 301.453 90.7219 302.717 100.565 303.687C100.565 303.066 100.597 302.198 100.565 301.335C99.6489 280.893 103.137 261.18 113.581 243.572C128.086 219.122 134.505 192.127 140.656 164.955C143.394 152.866 145.227 140.569 148.228 128.555C150.891 117.892 155.161 107.717 160.616 98.1148C167.266 86.4068 172.758 83.6634 185.784 87.2213C196.522 90.1577 206.917 94.3318 217.473 97.9272C224.139 100.199 230.73 102.744 237.513 104.561C243.354 106.12 249.27 105.536 255.207 103.87C273.988 98.6077 293.09 95.6607 312.659 97.5682C321.618 98.4416 330.62 99.1543 339.241 102.176C340.463 102.605 342.226 102.064 343.56 101.523C357.449 95.8804 371.252 90.0237 385.184 84.4832C394.298 80.8609 403.525 77.4745 412.817 74.3345C423.142 70.8462 431.914 73.7344 439.281 81.5897C446.215 88.9895 450.941 97.7718 455.453 106.72C465.243 126.117 470.178 146.876 472.776 168.288C473.35 173.019 474.663 177.466 476.538 181.882C488.573 210.174 494.328 239.827 495.072 270.476C495.249 277.758 494.59 285.056 494.301 292.703L494.29 292.708ZM247.223 551.435C249.655 552.201 252.051 553.139 254.526 553.702C264.659 556 274.786 555.775 284.661 552.544C291.547 550.294 296.734 546.104 297.682 538.211C297.977 535.735 298.641 533.308 299 530.838C299.751 525.667 299.761 520.518 298.191 515.465C297.232 512.384 291.858 510.669 289.087 512.421C275.333 521.145 260.64 524.692 244.683 519.735C238.853 517.924 233.221 515.47 227.547 513.327C228.083 515.968 228.999 518.894 229.208 521.863C229.513 526.208 229.471 530.597 229.272 534.958C229.069 539.347 231.384 542.004 234.716 544.373C234.941 542.181 235.145 540.22 235.343 538.254C235.617 538.222 235.895 538.184 236.169 538.152C234.443 544.802 238.039 548.209 243.37 550.465C244.586 550.98 245.98 551.082 247.292 551.371L247.223 551.441V551.435ZM338.073 567.296C359.539 567.215 374.092 557.79 379.016 538.077C380.415 532.467 381.535 526.712 381.974 520.957C382.339 516.204 380.088 511.789 378.116 507.39C375.335 513.6 370.829 518.031 365.176 521.128C351.292 528.737 336.38 532.708 320.503 532.129C314.523 531.909 308.576 530.677 302.323 529.873C301.481 535.007 300.185 540.676 299.708 546.414C299.033 554.463 303.828 560.764 311.635 562.966C314.899 563.888 318.135 565.045 321.468 565.538C326.976 566.353 332.554 566.712 338.105 567.264L338.079 567.301L338.073 567.296ZM223.86 292.853L223.855 292.869C225.291 293.458 226.674 294.299 228.169 294.594C251.868 299.283 274.641 296.293 296.659 286.476C315.156 278.23 332.185 267.438 349.229 256.657C379.852 237.287 409.971 217.059 442.781 201.381C443.225 201.166 443.606 200.818 444.265 200.368C439.689 193.048 435.504 185.67 430.66 178.747C420.538 164.279 408.541 151.441 395.525 139.513C378.764 124.151 359.957 112.352 338.036 105.836C335.759 105.161 333.471 104.518 331.188 103.864C331.22 103.72 331.252 103.58 331.284 103.436C332.677 103.575 334.076 103.714 335.469 103.859C327.528 100.981 319.303 99.7973 311.003 99.6955C276.067 99.2829 243.649 108.322 213.39 125.737C207.727 128.995 205.396 133.533 204.662 139.438C204.404 141.523 204.619 143.666 204.619 146.265C209.859 139.417 215.593 134.134 223.759 132.221C215.818 135.821 210.116 141.828 205.492 149.035C205.085 149.673 204.131 149.962 203.429 150.417C203.059 149.683 202.486 148.987 202.368 148.215C202.197 147.085 202.186 145.874 202.39 144.748C203.193 140.328 204.104 135.929 204.951 131.647C204.506 131.958 203.713 132.472 202.958 133.03C181.996 148.446 165.937 168.036 153.881 190.975C147.649 202.827 143.223 215.307 141.439 228.66C141.16 230.734 141.594 232.239 142.998 233.723C147.954 238.964 152.654 244.462 157.787 249.52C165.594 257.214 173.465 264.882 181.706 272.1C193.055 282.04 206.205 288.861 220.774 292.863C221.733 293.126 222.837 292.874 223.871 292.863L223.86 292.853ZM489.007 296.212C473.157 296.346 458.373 298.441 443.584 300.804C445.792 299.808 448.026 298.822 450.352 298.468C462.43 296.652 474.523 294.921 486.638 293.356C488.675 293.094 489.436 292.435 489.553 290.495C490.003 283.138 491.011 275.781 490.941 268.429C490.711 244.258 486.638 220.633 479.833 197.474C479.26 195.524 478.333 193.665 477.427 191.827C476.758 190.471 475.681 190.01 474.111 190.626C470.124 192.191 466.062 193.557 462.081 195.133C445.754 201.6 430.392 210.045 415.539 219.272C389.599 235.379 364.051 252.119 338.331 268.579C338.073 268.746 337.693 268.719 337.371 268.783C337.575 269.003 337.773 269.222 337.977 269.437C354.995 261.871 372.018 254.316 389.036 246.744C406.049 239.178 423.056 231.602 440.069 224.03C440.225 224.362 440.38 224.689 440.535 225.022C430.906 229.876 421.283 234.731 411.917 239.452C413.937 242.774 416 245.689 417.575 248.845C424.487 262.68 425.971 277.565 425.216 292.692C424.289 311.189 418.813 328.266 405.16 341.308C378.036 367.21 346.261 375.044 310.848 361.664C285.112 351.944 269.985 332.606 265.902 305.08C265.661 303.451 265.329 301.833 265.077 300.435C258.92 300.633 253.122 301.067 247.341 300.938C241.575 300.804 235.82 300.108 229.99 299.652C229.915 300.006 229.792 300.344 229.781 300.687C229.599 309.555 226.968 317.93 224.396 326.273C223.357 329.638 221.642 332.885 219.756 335.885C207.362 355.647 184.702 361.236 164.49 349.614C156.474 345.005 149.814 338.854 144.445 331.347C134.719 317.747 131.204 302.257 130.936 285.855C130.695 271.151 133.712 256.968 138.116 242.843C135.925 241.097 133.621 239.253 131.311 237.415C131.413 237.276 131.515 237.137 131.617 236.997C138.363 240.85 145.104 244.708 151.85 248.561C151.909 248.459 151.962 248.362 152.021 248.261C144.402 238.583 136.782 228.901 129.093 219.138C128.745 219.561 128.536 219.738 128.423 219.963C124.072 228.965 119.743 237.973 115.381 246.975C106.974 264.325 103.652 282.64 104.707 301.839C104.847 304.395 105.543 305.831 108.206 306.575C111.105 307.384 113.816 308.858 116.613 310.048L116.399 310.551C112.863 309.619 109.331 308.687 104.927 307.529C106.508 313.745 107.82 319.092 109.289 324.397C109.455 325.003 110.467 325.581 111.196 325.785C113.425 326.401 115.713 326.825 117.974 327.323C117.937 327.526 117.894 327.73 117.857 327.934C115.494 327.81 113.13 327.682 110.216 327.526C111.636 330.795 112.873 333.624 114.1 336.459C115.483 339.647 116.731 343.023 121.441 341.624C120.23 342.021 119.019 342.417 117.824 342.814C117.932 343.237 117.937 343.425 118.023 343.569C127.293 359.087 141.047 369.643 156.501 378.313C157.471 378.854 158.467 379.342 159.443 379.872C162.947 381.758 166.446 383.655 170.186 385.675C171.113 383.135 171.869 380.97 172.694 378.833C174.516 374.117 177.661 370.329 182.333 368.593C188.12 366.449 192.793 362.881 197.23 358.862C207.807 349.276 219.467 341.255 231.984 334.433C232.584 334.107 233.012 333.485 233.591 333.104C235.467 331.861 237.224 330.066 239.287 329.568C244.801 328.239 249.875 329.664 254.28 333.34C254.853 333.823 255.619 334.262 256.337 334.353C263.014 335.167 268.651 338.35 274.17 341.903C282.438 347.229 289.237 354.216 295.989 361.209C303.753 369.246 312.97 374.423 323.868 376.7C326.226 377.193 328.594 377.68 330.904 378.361C337.312 380.258 343.855 381.855 350.044 384.309C358.022 387.476 364.624 392.662 368.605 400.523C369.57 402.431 370.534 402.661 372.34 401.997C381.219 398.733 390.258 395.872 398.992 392.26C425.06 381.474 447.823 365.989 465.816 343.971C466.416 343.237 466.963 342.466 467.74 341.442C462.392 340.403 457.446 339.443 452.5 338.484C453.969 338.152 455.399 338.018 456.793 338.179C460.249 338.575 463.683 339.234 467.145 339.508C468.163 339.588 469.685 339.036 470.242 338.254C472.926 334.498 475.418 330.597 477.851 326.669C479.142 324.585 480.171 322.334 481.709 319.419C470.788 319.125 460.565 318.846 450.346 318.567C451.193 318.117 452.109 317.769 453.036 317.742C461.326 317.485 469.615 317.201 477.91 317.126C480.573 317.105 482.893 317.689 483.772 313.943C485.143 308.108 487.121 302.417 488.969 296.223L489.007 296.212ZM384.166 532.392C390.912 527.644 398.156 526.037 406.097 526.16C420.726 526.385 435.365 526.514 449.987 526.101C460.179 525.812 470.194 524.065 479.565 519.516C487.105 515.856 491.289 510.814 491.322 501.742C491.386 484.729 489.446 468.177 484.784 451.776C478.285 428.895 469.01 407.543 453.09 389.576C449.034 385 444.217 381.099 439.737 376.904C438.681 375.918 437.669 375.95 436.415 376.823C416.986 390.278 395.547 399.419 373.031 406.214C368.107 407.698 363.118 408.979 358.113 410.361C358.719 413.072 359.41 415.559 359.812 418.088C361.446 428.37 359.437 438.289 357.063 448.26C349.722 479.135 329.811 498.832 301.631 511.291C300.201 511.923 300.093 512.587 300.452 513.943C301.192 516.692 301.926 519.473 302.285 522.286C302.912 527.157 302.789 527.173 307.461 528.657C307.718 528.737 307.981 528.796 308.233 528.871C314.25 530.677 320.434 530.806 326.548 529.964C339.756 528.143 352.744 525.319 364.769 519.232C368.9 517.142 372.431 514.27 374.585 510.047C376.278 506.731 377.623 503.344 375.105 499.759C374.671 499.143 374.526 498.323 374.247 497.595C374.537 497.477 374.826 497.354 375.11 497.236C377.805 502.674 380.501 508.118 383.351 513.879C384.225 502.567 385.077 491.567 385.923 480.566C387.14 497.884 386.293 515.1 384.144 532.392H384.166ZM369.114 403.09C368.594 402.141 368.337 401.6 368.01 401.102C364.008 395.047 358.515 390.776 351.994 387.706C344.402 384.127 336.294 382.278 328.101 380.976C313.763 378.704 301.717 372.531 292.34 361.311C290.17 358.712 287.678 356.386 285.39 353.884C277.942 345.756 268.967 339.958 258.625 336.228C257.666 335.885 256.659 335.666 255.866 335.446C253.235 341.072 249.098 345.166 243.434 345.198C237.899 345.23 234.556 340.692 232.573 334.691C224.214 340.799 215.968 346.543 208.053 352.711C203.349 356.376 199.282 360.845 194.69 364.665C192.402 366.567 189.755 368.405 186.958 369.252C179.231 371.593 174.928 376.791 172.742 384.244C172.244 385.938 172.458 386.849 174.173 387.534C185.093 391.923 195.713 397.297 206.933 400.662C254.226 414.841 302.231 416.866 350.687 407.403C356.785 406.214 362.797 404.579 369.109 403.09H369.114ZM485.92 531.775C486.665 532.017 486.831 532.108 487.003 532.118C487.539 532.151 488.074 532.167 488.61 532.172C511.651 532.263 532.211 524.515 549.481 509.892C579.45 484.51 592.578 451.652 589.465 412.338C588.613 401.589 588.49 390.787 588.088 380.006C588.034 378.554 588.334 377.086 588.495 375.291C579.911 376.4 571.841 375.13 564.372 371.808C556.95 368.507 549.969 364.21 542.687 360.293C542.863 360.035 542.665 360.228 542.579 360.459C538.871 371.02 536.642 381.79 538.212 393.054C538.973 398.535 539.836 404.001 540.683 409.471C542.274 419.733 544.048 430.16 542.076 440.384C537.071 466.356 523.032 485.608 498.068 495.934C496.225 496.694 495.501 497.552 495.453 499.577C495.367 503.226 495.056 506.886 494.563 510.503C493.508 518.192 491.236 525.453 485.926 531.775H485.92ZM264.814 432.737C262.092 434.902 261.476 437.346 262.006 440.341C264.198 452.729 266.277 465.134 268.458 477.522C269.031 480.791 274.904 485.49 278.258 485.624C279.968 485.694 280.734 484.885 280.798 483.261C280.996 478.197 281.179 473.128 281.409 468.065C281.425 467.727 281.789 467.406 281.988 467.079C282.256 467.063 282.523 467.047 282.791 467.031C284.506 474.404 286.055 481.82 287.973 489.139C289.977 496.775 294.665 503.044 299.059 509.619C320.932 502.197 336.68 487.644 346.502 467.25C355.006 449.584 361.42 431.087 357.058 410.484C329.977 416.453 302.96 418.42 275.172 416.904C276.811 418.838 278.055 420.311 279.223 421.689C278.44 423.178 277.615 424.459 277.063 425.847C275.445 429.903 273.977 434.018 272.348 438.074C272.048 438.824 271.298 439.387 270.751 440.041C270.173 439.542 269.492 439.119 269.031 438.524C267.622 436.692 266.298 434.795 264.814 432.748V432.737ZM288.278 294.916C281.591 296.491 274.995 298.013 268.436 299.668C267.901 299.802 267.258 300.928 267.279 301.576C267.354 303.977 267.408 306.436 267.96 308.756C272.878 329.557 285.128 344.871 303.839 354.747C319.63 363.079 336.766 365.174 354.352 362.934C369.554 361 382.633 353.889 394.845 345.048C405.101 337.622 412.388 327.864 416.921 316.049C419.884 308.328 421.744 300.333 422.199 292.076C422.998 277.608 422.28 263.28 416.562 249.713C415.319 246.76 413.02 244.226 411.048 241.622C410.663 241.113 409.355 240.743 408.793 241.005C401.527 244.392 394.314 247.907 387.675 251.106C390.119 258.983 392.793 266.522 394.775 274.243C397.417 284.52 397.508 294.964 394.706 305.257C390.044 322.361 380.56 335.677 363.622 342.417C344.005 350.224 317.492 342.723 303.18 325.48C295.753 316.531 291.836 305.772 288.284 294.91L288.278 294.916ZM342.848 103.773C344.171 104.593 344.868 105.134 345.65 105.488C353.195 108.923 360.739 112.352 368.326 115.69C368.889 115.937 369.875 115.69 370.47 115.336C383.469 107.701 397.138 101.716 411.884 98.3184C422.515 95.875 425.875 97.4236 429.953 107.481C439.523 131.079 443.225 155.197 436.056 180.226C435.777 181.196 435.616 182.519 436.056 183.323C439.083 188.864 442.288 194.308 445.213 199.398C455.49 195.47 465.275 191.73 475.145 187.958C473.821 183.907 472.155 179.84 471.201 175.612C470.226 171.294 470.151 166.776 469.326 162.42C467.991 155.411 466.673 148.376 464.803 141.501C459.563 122.222 451.515 104.159 439.614 88.0411C431.003 76.376 423.946 73.7719 410.341 78.5354C387.895 86.3961 365.765 95.1463 342.853 103.768L342.848 103.773ZM139.306 229.378C144.343 204.971 148.067 194.056 157.149 178.999C159.346 175.361 160.139 171.904 159.791 167.698C158.21 148.66 162.379 130.79 171.574 114.104C175.866 106.318 180.372 104.229 189.096 105.933C199.544 107.974 209.677 111.098 219.413 115.486C220.522 115.985 222.205 115.926 223.373 115.476C229.948 112.947 236.453 110.225 242.974 107.556C243.461 107.358 243.911 107.063 243.863 107.09C239.823 106.201 235.418 105.536 231.201 104.245C219.172 100.553 207.271 96.4269 195.209 92.8475C189.68 91.2079 183.93 90.222 178.213 89.3485C173.808 88.6788 170.111 90.5435 167.577 94.2193C165.605 97.0753 163.686 100.017 162.149 103.114C153.715 120.079 148.329 137.858 144.991 156.649C141.492 176.352 135.309 195.578 130.331 215.018C130.084 215.977 129.698 217.365 130.154 217.97C132.978 221.737 136.027 225.338 139.311 229.383L139.306 229.378ZM489.232 517.104C488.953 516.933 488.675 516.767 488.396 516.595C487.614 517.169 486.847 517.758 486.054 518.31C478.714 523.4 470.917 527.553 461.92 528.625C457.259 529.182 452.501 528.914 447.791 529.15C435.381 529.771 422.96 530.023 410.62 528.357C403.509 527.392 396.747 528.137 390.151 530.806C386.154 532.424 383.11 534.921 382.162 539.433C381.797 541.169 380.908 542.814 380.645 544.555C380.442 545.927 380.393 547.631 381.031 548.772C384.53 555.068 390.515 557.924 397.213 558.942C403.525 559.901 409.977 560.459 416.359 560.373C439.662 560.057 459.45 550.733 476.763 535.692C479.823 533.035 482.395 529.691 484.683 526.315C486.585 523.508 487.748 520.196 489.232 517.104ZM435.295 180.858C435.997 173.673 437.031 166.498 437.331 159.296C438.087 141.239 432.91 124.338 426.405 107.803C423.399 100.151 421.631 99.5187 413.47 100.874C399.008 103.275 385.923 109.453 372.785 115.492C372.093 115.808 371.493 116.333 370.609 116.923C397.776 132.778 417.848 155.32 435.295 180.858ZM583.271 373.999C584.519 373.999 585.843 374.257 586.989 373.914C587.857 373.656 588.918 372.772 589.186 371.942C591.158 365.844 593.012 359.703 594.78 353.547C596.495 347.593 597.647 341.576 596.168 335.36C594.684 329.139 590.226 324.804 583.86 323.915C574.194 322.565 566.145 326.235 559.287 332.676C552.348 339.192 547.547 347.181 544.123 356.049C543.469 357.747 544.064 358.514 545.376 359.237C551.072 362.372 556.624 365.823 562.496 368.577C569.034 371.642 575.882 374.01 583.271 373.994V373.999ZM139.82 243.995C139.467 244.831 139.188 245.383 138.995 245.962C133.235 263.237 131.858 280.861 134.955 298.8C138.411 318.83 148.12 334.873 165.572 345.756C183.507 356.938 203.338 353.338 216.278 336.598C224.482 325.983 227.301 313.573 227.858 300.483C227.879 299.926 227.434 298.956 227.022 298.838C223.132 297.734 219.204 296.78 215.796 295.907C214.992 302.739 214.424 309.383 213.401 315.963C209.543 340.756 185.779 347.401 169.468 339.99C152.386 332.231 140.185 312.389 141.524 293.656C142.408 281.279 145.061 269.314 150.923 258.222C151.775 256.604 152.525 254.932 153.323 253.287C148.726 250.12 144.348 247.103 139.826 243.99L139.82 243.995ZM241.811 458.189C243.493 450.656 244.913 443.947 246.51 437.281C247.148 434.618 246.569 432.443 244.64 430.155C243.108 432.057 241.73 433.9 240.193 435.599C239.475 436.392 238.435 436.89 237.54 437.522C236.951 436.579 236.094 435.711 235.82 434.682C234.572 430.042 233.398 425.37 232.418 420.67C232.225 419.749 232.766 418.452 233.371 417.627C234.604 415.939 236.104 414.455 237.647 412.719C231.775 411.476 226.256 410.431 220.801 409.123C215.384 407.826 210.031 406.262 204.629 404.804C203.713 411.513 204.495 420.563 206.789 427.218C211.568 441.059 217.8 454.246 225.371 466.768C228.136 471.339 231.319 475.658 234.347 480.068C234.861 480.818 235.547 481.439 236.485 482.49C237.953 475.454 239.239 468.981 240.691 462.551C241.093 460.783 240.712 459.588 239.587 458.206C236.704 454.669 234.036 450.956 231.287 447.317C231.469 447.183 231.651 447.049 231.828 446.91C234.995 450.484 238.162 454.058 241.822 458.189H241.811ZM220.094 117.046C219.793 116.794 219.622 116.553 219.402 116.483C210.518 113.825 201.72 110.819 192.718 108.628C181.396 105.879 177.784 107.883 172.013 117.989C163.167 133.491 160.932 150.396 161.098 167.843C161.109 168.85 161.372 169.852 161.629 171.594C176.777 148.087 196.228 130.233 220.094 117.04V117.046ZM248.08 437.485C247.464 440.812 246.949 443.968 246.285 447.092C243.531 460.092 240.653 473.064 238.039 486.096C237.674 487.912 237.926 490.404 238.939 491.845C242.111 496.362 245.69 500.601 249.291 504.796C251.145 506.95 253.417 507.025 255.373 504.978C259.247 500.917 263.046 496.759 266.577 492.402C267.552 491.197 268.029 489.059 267.793 487.483C266.39 477.956 264.696 468.472 263.126 458.966C262.055 452.483 261.026 445.994 260.029 439.832C256.268 437.581 251.724 441.236 248.075 437.485H248.08ZM284.736 513.262C283.059 513.016 282.036 512.925 281.045 512.705C276.972 511.805 272.825 511.119 268.86 509.865C265.393 508.772 262.146 506.972 258.754 505.611C258.073 505.337 256.991 505.364 256.38 505.729C252.57 508.022 251.091 508.054 248 504.807C244.624 501.254 241.516 497.45 238.323 493.726C236.726 491.861 235.515 489.873 235.772 487.194C235.847 486.38 235.14 485.399 234.604 484.627C224.209 469.635 214.371 454.342 208.6 436.831C208.294 435.91 207.893 435.02 207.539 434.12C207.282 434.2 207.025 434.281 206.762 434.366C208.321 441.118 209.698 447.923 211.472 454.621C216.198 472.469 221.122 490.27 225.87 508.113C226.443 510.267 227.692 511.414 229.546 512.325C239.405 517.169 249.897 519.441 260.79 520.003C269.246 520.437 276.924 517.93 284.742 513.268L284.736 513.262ZM227.097 530.806C227.852 522.779 225.227 516.183 223.234 509.442C222.666 507.529 221.765 507.111 219.986 507.374C212.442 508.488 204.115 516.07 202.55 523.545C202.213 525.147 202.25 526.953 202.609 528.56C204.662 537.863 213.626 542.353 223.287 539.148C225.752 538.329 227.365 537.177 227.118 534.299C226.995 532.885 227.097 531.454 227.097 530.806ZM237.915 434.709C242.85 430.171 247.566 425.836 252.281 421.49C253.765 420.124 255.201 419.438 256.83 421.351C259.601 424.614 262.435 427.824 265.243 431.06C267.011 433.091 268.774 435.127 270.44 437.045C272.643 432.26 274.765 427.658 276.86 423.039C277.063 422.594 277.315 421.844 277.106 421.597C275.338 419.481 274.154 416.866 270.714 416.528C260.951 415.569 251.22 414.294 241.468 413.196C240.557 413.094 239.25 413.008 238.735 413.522C236.806 415.451 235.124 417.632 233.371 419.738C233.302 419.818 233.425 420.076 233.473 420.242C234.952 425.07 236.436 429.897 237.915 434.715V434.709ZM221.128 505.589C215.903 485.12 210.658 464.593 205.417 444.07C205.294 444.177 205.117 444.268 205.037 444.408C204.72 444.949 204.383 445.479 204.152 446.058C197.696 462.031 198.328 477.292 209.227 491.245C213.09 496.191 215.753 501.083 212.785 507.384C212.753 507.454 212.962 507.631 212.972 507.647C215.866 506.918 218.695 506.205 221.138 505.589H221.128ZM295.571 509.747C288.691 498.875 285.406 486.814 282.818 474.409C282.298 476.858 281.977 479.285 281.95 481.718C281.897 486.417 279.957 487.709 275.697 485.624C273.639 484.617 271.673 483.406 269.406 482.136C269.562 484.59 270.039 486.749 269.733 488.791C269.433 490.795 268.34 492.681 267.44 495.012C274.936 502.514 283.102 509.506 295.576 509.742L295.571 509.747ZM337.35 296.609C337.323 291.379 333.347 287.066 328.546 287.044C322.706 287.017 317.883 291.422 317.888 296.775C317.894 302.176 322.352 306.318 328.043 306.216C332.924 306.131 337.377 301.533 337.35 296.609ZM152.391 299.101C152.327 304.186 155.708 307.942 160.359 307.952C164.758 307.963 168.412 304.196 168.391 299.685C168.37 295.35 164.753 291.819 160.295 291.786C155.858 291.754 152.439 294.921 152.386 299.101H152.391ZM242.647 330.709C240.386 331.256 238.569 331.443 236.999 332.167C236.002 332.628 234.883 333.796 234.684 334.814C234.084 337.847 235.831 340.097 238.017 341.93C240.166 343.73 242.663 345.605 245.476 343.993C248.112 342.476 250.443 340.322 252.629 338.168C254.355 336.47 253.781 334.589 251.606 333.715C248.589 332.504 245.433 331.626 242.652 330.709H242.647ZM254.682 420.831C251.847 423.462 249.221 425.857 246.66 428.322C246.285 428.681 245.91 429.565 246.092 429.887C247.507 432.352 248.734 435.063 250.711 437.003C251.638 437.914 254.092 437.447 255.828 437.287C257.216 437.158 258.84 436.901 259.852 436.076C261.331 434.875 262.36 433.112 263.871 431.232C260.849 427.813 257.822 424.384 254.682 420.831ZM259.07 503.323C267.284 508.767 283.193 513.868 287.844 510.899C279.239 507.658 271.834 502.712 265.232 496.287C263.078 498.741 261.149 500.944 259.07 503.317V503.323Z" fill="#05253B"/>
<path d="M223.866 292.853C222.832 292.864 221.728 293.121 220.769 292.853C206.199 288.85 193.05 282.024 181.701 272.089C173.455 264.872 165.589 257.204 157.782 249.509C152.648 244.451 147.949 238.954 142.993 233.713C141.589 232.229 141.16 230.723 141.433 228.649C143.218 215.296 147.649 202.812 153.875 190.964C165.937 168.025 181.99 148.435 202.952 133.019C203.713 132.462 204.501 131.948 204.946 131.637C204.099 135.918 203.188 140.317 202.384 144.738C202.181 145.863 202.186 147.074 202.363 148.205C202.481 148.976 203.054 149.678 203.424 150.407C204.126 149.957 205.08 149.668 205.487 149.025C210.111 141.818 215.812 135.816 223.753 132.21C215.587 134.123 209.854 139.406 204.613 146.254C204.613 143.656 204.394 141.512 204.656 139.428C205.39 133.523 207.721 128.984 213.385 125.727C243.643 108.312 276.061 99.2778 310.998 99.6851C319.298 99.7815 327.523 100.966 335.464 103.848C334.071 103.709 332.672 103.57 331.279 103.425C331.247 103.57 331.215 103.709 331.183 103.854C333.465 104.513 335.753 105.151 338.03 105.826C359.951 112.341 378.759 124.14 395.52 139.503C408.53 151.43 420.527 164.269 430.655 178.737C435.499 185.66 439.689 193.038 444.259 200.357C443.606 200.813 443.225 201.161 442.775 201.37C409.966 217.043 379.847 237.276 349.224 256.647C332.179 267.428 315.15 278.219 296.653 286.466C274.636 296.282 251.863 299.272 228.163 294.584C226.668 294.289 225.286 293.448 223.85 292.858C227.729 291.969 230.457 287.714 230.049 282.87C229.594 284.156 229.412 285.351 228.801 286.246C227.258 288.518 225.516 290.656 223.855 292.842L223.866 292.853ZM333.037 256.625C332.945 255.629 332.656 254.6 332.801 253.63C334.494 242.088 328.509 231.039 317.867 226.313C312.3 223.843 306.995 224.524 301.771 227.797C302.081 227.98 302.173 228.081 302.231 228.065C302.826 227.905 303.432 227.755 304.005 227.54C310.414 225.161 316.056 226.549 321.173 230.884C330.481 238.766 333.262 249.509 328.943 261.335C328.069 263.725 327.019 266.056 326.055 268.414C326.269 268.515 326.483 268.617 326.698 268.719C328.793 264.674 330.893 260.628 332.988 256.582C338.411 252.735 343.839 248.899 349.235 245.014C349.551 244.783 349.572 244.14 349.867 243.294C346.507 243.733 343.507 244.124 340.506 244.515C340.506 244.59 340.506 244.665 340.506 244.741C342.21 244.874 343.919 245.008 346.079 245.18C344.139 246.53 342.473 247.436 341.117 248.684C338.336 251.24 335.721 253.973 333.042 256.636L333.037 256.625ZM223.582 214C219.542 213.469 215.501 212.933 211.317 212.382C212.485 211.38 213.471 210.538 214.885 209.333C211.97 210.56 209.741 211.706 207.384 212.435C205.176 213.116 202.829 213.357 200.541 213.785C200.579 214.085 200.616 214.386 200.654 214.691C201.2 214.841 201.757 215.146 202.293 215.12C209.393 214.771 216.493 214.38 223.593 214C224.005 217.451 224.305 220.917 224.857 224.341C225.688 229.512 225.511 234.576 224.616 239.763C223.914 243.851 224.112 248.106 224.107 252.29C224.107 254.519 224.514 256.749 224.804 259.626C219.07 253.732 212.678 251.524 205.219 252.499C211.585 253.105 217.511 255.018 222.285 259.369C224.086 261.008 225.334 263.42 226.39 265.686C229.433 272.213 232.177 278.878 235.22 285.405C235.997 287.066 237.455 288.411 238.601 289.901C236.581 285.228 234.165 280.85 232.375 276.226C227.944 264.754 225.302 252.901 227.718 240.593C228.822 234.972 229.144 229.491 228.383 223.875C228.083 221.668 227.869 219.438 227.74 217.215C226.877 202.308 229.433 188.258 238.049 175.672C239.014 174.262 239.523 172.408 239.791 170.688C242.304 154.356 250.09 140.633 261.567 129.22C268.474 122.356 276.64 116.746 284.335 110.686C290.534 105.804 297.538 104.765 305.071 106.919C305.162 106.946 305.302 106.812 305.436 106.747C301.733 104.609 294.998 104.122 291.006 105.627C278.891 110.209 269.246 118.723 259.836 126.975C247.1 138.147 238.987 152.663 236.035 169.686C235.783 171.138 235.354 172.741 234.486 173.882C230.017 179.776 227.193 186.453 225.897 193.601C224.675 200.32 224.321 207.195 223.582 214ZM169.554 249.531C169.838 249.815 170.127 250.093 170.411 250.377C172.919 248.475 175.426 246.578 178.122 244.532C176 253.244 177.179 261.378 181.642 269.051C177.618 257.016 177.109 245.308 186.374 235.422C195.681 225.488 207.009 224.1 219.451 229.217C217.661 227.99 215.834 226.753 213.824 226.018C202.995 222.075 189.128 226.035 182.757 235.615C179.118 241.081 175.887 246.616 169.559 249.525L169.554 249.531ZM230.564 232.947C233.591 229.517 237.433 227.476 241.827 226.656C255.11 224.165 266.566 228.103 276.179 237.276C281.077 241.949 282.347 247.966 280.541 254.546C280.219 255.72 279.855 256.883 279.512 258.056C280.032 257.815 280.294 257.483 280.503 257.113C284.554 249.906 283.472 241.29 277.213 234.951C268.131 225.756 256.991 222.16 244.233 224.234C238.564 225.156 233.473 227.438 230.569 232.952L230.564 232.947ZM250.122 203.321C249.843 194.672 253.631 188.403 261.246 184.684C266.593 182.069 269.61 178.292 269.728 172.258C269.781 169.59 271.191 167.586 273.27 165.946C275.997 163.792 278.751 161.654 281.275 159.275C284.329 156.398 286.43 152.861 286.832 148.585C286.966 147.149 286.607 145.665 286.473 144.207C285.513 151.597 283.718 155.021 277.824 159.656C276.495 160.7 275.161 161.777 273.698 162.619C269.235 165.201 266.824 168.974 266.69 174.15C266.604 177.408 264.911 179.562 262.242 181.287C259.558 183.023 256.803 184.791 254.558 187.026C250.014 191.548 248.562 197.116 250.122 203.315V203.321ZM417.875 199.473C417.109 195.133 414.746 192.122 410.652 190.975C403.493 188.976 398.58 192.636 394.438 198.262C394.068 196.896 393.854 195.862 393.5 194.881C393.141 193.901 392.637 192.968 392.198 192.015C393.237 196.307 393.387 200.416 391.903 204.526C390.381 208.743 387.708 212.146 384.434 215.136C383.86 215.661 383.405 216.32 382.901 216.92L383.148 217.992C388.372 215.618 393.318 215.602 397.888 219.015C395.595 215.709 392.16 214.916 389.106 214.723C390.762 210.785 392.857 206.948 393.971 202.844C395.343 197.769 399.346 193.461 404.876 192.438C410.164 191.463 414.055 193.349 417.168 198.391C417.393 198.755 417.645 199.109 417.886 199.463L417.875 199.473ZM350.43 217.434L350.837 217.949C353.061 216.39 355.365 214.932 357.492 213.255C369.211 204.023 370.116 185.29 359.362 174.814C356.715 172.237 353.58 170.817 349.83 171.122C353.998 172.108 357.347 174.214 359.764 177.842C367.742 189.818 365.594 204.805 354.566 213.882C353.162 215.039 351.807 216.25 350.43 217.44V217.434ZM296.986 175.607C298.341 176.004 299.751 176.261 301.037 176.818C305.516 178.747 310.306 180.232 314.336 182.873C324.667 189.646 327.764 200.711 323.166 212.167C322.748 213.207 322.331 214.241 321.65 215.918C329.65 206.755 328.68 192.561 319.93 184.39C313.516 178.404 305.564 176.122 296.986 175.607ZM394.336 173.571C393.484 172.95 393.221 172.708 392.916 172.542C382.756 167.018 371.29 173.217 369.527 185.236C368.423 192.759 370.111 200.068 371.445 207.404C371.563 204.194 371.466 201 371.263 197.812C370.931 192.534 370.893 187.288 372.661 182.209C375.18 174.975 381.374 171.096 388.651 172.258C390.306 172.521 391.925 173.008 394.336 173.571ZM290.148 145.906C290.829 146.12 290.92 146.185 290.995 146.169C291.949 145.938 292.903 145.724 293.846 145.456C308.892 141.132 322.266 144.491 334.13 154.383C337.918 157.539 340.903 161.295 340.769 166.841C341.969 164.189 341.31 161.82 340.222 159.57C338.186 155.358 335.094 151.988 331.081 149.668C324.136 145.66 316.624 143.109 308.651 142.203C302.296 141.485 296.294 142.97 290.148 145.906ZM232.895 149.325C216.868 151.109 202.556 169.976 205.862 184.818C207.266 167.109 217.013 155.894 232.895 149.325ZM241.43 120.808C249.28 112.909 257.945 107.969 269.24 109.046C259.016 105.204 241.854 112.824 238.065 123.171C242.733 121.188 246.269 124.001 250.454 125.512C248.402 121.852 244.978 121.654 241.43 120.808ZM204.699 192.411C205.503 182.814 200.069 174 192.364 172.317C186.566 171.053 177.597 175.564 175.603 181.207C177.205 179.953 178.411 178.983 179.644 178.045C188.758 171.117 198.467 173.909 202.491 184.69C203.413 187.165 203.96 189.785 204.699 192.411ZM365.915 144.186C370.277 131.594 354.727 115.562 340.517 117.587C357.401 121.97 365.428 130.254 365.915 144.186ZM279.625 130.522C292.083 127.061 304.53 123.556 317.685 125.646C304.23 121.156 291.767 124.591 279.625 130.522ZM261.765 285.941C260.142 285.057 258.909 284.403 257.688 283.728C251.815 280.475 249.152 275.588 250.116 268.848C250.416 266.726 250.711 264.604 250.931 262.477C251.124 260.601 251.199 258.715 251.322 256.834C251.102 256.818 250.883 256.797 250.668 256.781C249.832 261.48 248.745 266.152 248.225 270.884C247.394 278.391 253.556 285.292 261.771 285.946L261.765 285.941ZM369.446 140.36C373.637 139.053 376.407 139.648 378.856 143.452C381.626 147.76 383.737 152.497 386.009 157.11C386.952 159.029 387.574 161.108 388.34 163.112C387.241 156.194 385.811 149.362 381.353 143.784C379.852 141.903 377.752 140.344 375.641 139.155C373.631 138.019 371.386 138.265 369.452 140.366L369.446 140.36ZM336.541 109.416C331.295 102.402 316.694 99.4922 308.811 104.025C318.757 103.318 328.289 103.072 336.541 109.416ZM307.204 258.522C302.639 261.083 298.384 260.816 293.867 258.083C290.502 256.047 287.271 257.906 284.436 260.065C285.379 259.958 286.269 259.642 287.158 259.321C289.639 258.42 291.954 258.517 294.306 259.942C299.113 262.862 302.644 262.477 307.204 258.522ZM277.567 208.524C283.327 203.235 289.302 199.902 296.97 201.761C293.91 197.132 281.248 201.263 277.567 208.524ZM361.409 220.805C360.911 223.988 360.434 227.128 359.914 230.262C359.646 231.859 359.437 233.408 361.629 233.713C363.836 234.018 366.06 234.227 368.278 234.474L368.396 233.917C366.055 233.3 363.718 232.684 361.296 232.041C361.693 228.189 363.177 224.459 361.414 220.799L361.409 220.805ZM206.06 276.778C206.055 276.832 206.049 276.891 206.044 276.944H214.73C213.915 278.214 213.288 279.189 212.538 280.357C215.459 278.268 218.116 276.371 220.774 274.474L220.597 273.986C215.753 274.913 210.909 275.846 206.065 276.773L206.06 276.778ZM274.191 197.603C280.787 200.727 289.414 198.621 292.485 193.295C287.014 197.325 281.195 198.686 274.191 197.603ZM156.774 245.067C156.528 238.471 156.597 232.411 159.641 226.838C155.467 230.83 154.084 239.125 156.774 245.067ZM408.407 164.473C408.048 157.576 403.568 151.216 398.376 150.236C403.75 153.617 405.953 158.804 408.407 164.473ZM167.148 184.995C167.378 180.215 167.625 174.964 167.871 169.906C165.294 174.879 165.117 180.146 167.148 184.995ZM421.76 201.317C424.466 197.121 427.284 192.759 429.888 188.724C426.057 190.916 423.115 195.401 421.76 201.317ZM165.712 212.039C164.297 215.564 165.792 222.198 168.691 224.915C167.732 220.773 166.65 216.09 165.712 212.039ZM251.274 146.072C255.651 149.571 259.504 152.652 263.362 155.733C260.474 151.447 256.873 148.06 251.274 146.072ZM413.904 178.876C412.479 175.018 411.011 171.037 409.564 167.114C409.119 171.765 410.577 175.747 413.904 178.876ZM181.01 194.635C180.185 199.511 180.972 203.808 183.748 207.939C182.821 203.422 181.937 199.141 181.01 194.635ZM202.931 251.213C203.022 251.54 203.118 251.867 203.209 252.194C206.832 251.256 210.449 250.313 214.071 249.375C213.996 249.086 213.921 248.802 213.846 248.513C210.207 249.413 206.574 250.313 202.936 251.213H202.931ZM153.661 224.593C151.657 220.515 150.023 217.183 148.383 213.85C148.613 217.917 150.21 221.319 153.661 224.593ZM339.016 138.072C334.751 139.653 331.756 141.657 330.122 145.284C332.903 143.029 335.684 140.773 339.016 138.072ZM314.872 173.662V164.167C313.307 167.597 313.243 170.608 314.872 173.662Z" fill="#D09090"/>
<path d="M489.012 296.212C487.158 302.406 485.186 308.102 483.815 313.932C482.936 317.678 480.61 317.088 477.953 317.115C469.658 317.19 461.369 317.479 453.079 317.731C452.152 317.758 451.236 318.106 450.389 318.556C460.608 318.835 470.831 319.108 481.752 319.408C480.214 322.323 479.185 324.574 477.894 326.658C475.461 330.586 472.964 334.487 470.285 338.243C469.728 339.025 468.206 339.577 467.188 339.497C463.721 339.224 460.292 338.564 456.835 338.168C455.437 338.007 454.012 338.141 452.543 338.473C457.489 339.433 462.435 340.392 467.783 341.431C467.006 342.455 466.459 343.226 465.859 343.96C447.866 365.978 425.109 381.463 399.035 392.25C390.301 395.861 381.262 398.722 372.383 401.986C370.577 402.65 369.613 402.42 368.648 400.512C364.661 392.652 358.065 387.465 350.087 384.298C343.893 381.838 337.355 380.242 330.947 378.35C328.637 377.67 326.269 377.182 323.911 376.689C313.007 374.412 303.796 369.236 296.032 361.198C289.275 354.205 282.481 347.218 274.213 341.892C268.694 338.339 263.057 335.157 256.38 334.342C255.657 334.256 254.896 333.812 254.323 333.329C249.918 329.654 244.849 328.228 239.33 329.557C237.267 330.055 235.504 331.85 233.634 333.094C233.055 333.474 232.627 334.096 232.027 334.422C219.51 341.244 207.85 349.27 197.272 358.851C192.836 362.87 188.163 366.439 182.376 368.582C177.704 370.313 174.558 374.101 172.737 378.822C171.911 380.96 171.156 383.124 170.229 385.664C166.489 383.639 162.984 381.747 159.485 379.861C158.51 379.336 157.508 378.848 156.544 378.302C141.09 369.632 127.335 359.076 118.066 343.558C117.98 343.414 117.974 343.226 117.867 342.803C119.062 342.412 120.273 342.015 121.484 341.613C116.774 343.012 115.52 339.636 114.143 336.448C112.916 333.613 111.678 330.784 110.258 327.516C113.173 327.671 115.536 327.794 117.899 327.923C117.937 327.719 117.98 327.516 118.017 327.312C115.756 326.814 113.468 326.39 111.239 325.774C110.51 325.571 109.498 324.992 109.331 324.386C107.858 319.082 106.55 313.734 104.97 307.518C109.374 308.681 112.905 309.613 116.442 310.54L116.656 310.037C113.865 308.853 111.148 307.379 108.249 306.565C105.586 305.82 104.889 304.384 104.75 301.828C103.689 282.629 107.017 264.309 115.424 246.964C119.78 237.967 124.115 228.954 128.466 219.952C128.573 219.727 128.788 219.551 129.136 219.127C136.825 228.89 144.445 238.573 152.064 248.25C152.005 248.352 151.952 248.448 151.893 248.55C145.147 244.697 138.406 240.839 131.66 236.987C131.558 237.126 131.456 237.265 131.354 237.404C133.664 239.242 135.968 241.086 138.159 242.832C133.755 256.952 130.738 271.135 130.979 285.844C131.247 302.246 134.762 317.737 144.487 331.336C149.857 338.843 156.517 344.994 164.533 349.603C184.75 361.23 207.405 355.641 219.799 335.875C221.68 332.874 223.4 329.627 224.439 326.262C227.017 317.919 229.642 309.538 229.824 300.676C229.83 300.333 229.958 299.99 230.033 299.642C235.863 300.097 241.618 300.799 247.384 300.928C253.165 301.062 258.958 300.622 265.12 300.424C265.372 301.822 265.704 303.441 265.945 305.07C270.028 332.59 285.16 351.928 310.891 361.654C346.304 375.033 378.079 367.194 405.203 341.297C418.856 328.26 424.337 311.178 425.259 292.681C426.014 277.554 424.53 262.664 417.618 248.834C416.042 245.678 413.98 242.763 411.959 239.441C421.326 234.715 430.955 229.865 440.578 225.011C440.423 224.678 440.267 224.352 440.112 224.019C423.099 231.591 406.092 239.167 389.079 246.733C372.061 254.305 355.038 261.86 338.02 269.426C337.816 269.206 337.618 268.987 337.414 268.772C337.736 268.708 338.116 268.735 338.373 268.569C364.093 252.108 389.642 235.368 415.582 219.261C430.435 210.039 445.792 201.595 462.124 195.122C466.105 193.547 470.167 192.18 474.154 190.616C475.724 189.999 476.801 190.46 477.47 191.816C478.376 193.648 479.303 195.508 479.876 197.463C486.681 220.628 490.759 244.252 490.984 268.419C491.054 275.77 490.046 283.127 489.596 290.484C489.478 292.424 488.718 293.083 486.681 293.345C474.566 294.91 462.472 296.641 450.395 298.457C448.064 298.806 445.835 299.797 443.627 300.794C458.422 298.431 473.2 296.335 489.05 296.201L489.012 296.212Z" fill="#B7B7B7"/>
<path d="M384.176 532.392C386.325 515.1 387.166 497.884 385.955 480.566C385.103 491.567 384.257 502.567 383.383 513.879C380.533 508.118 377.837 502.68 375.142 497.236C374.853 497.354 374.564 497.477 374.28 497.595C374.558 498.323 374.703 499.138 375.137 499.759C377.655 503.344 376.31 506.731 374.617 510.047C372.463 514.27 368.932 517.142 364.801 519.232C352.777 525.313 339.788 528.137 326.58 529.964C320.466 530.806 314.282 530.677 308.265 528.871C308.008 528.796 307.745 528.737 307.493 528.657C302.826 527.173 302.944 527.162 302.317 522.286C301.958 519.473 301.219 516.692 300.485 513.943C300.12 512.593 300.227 511.928 301.663 511.291C329.843 498.827 349.749 479.135 357.095 448.26C359.469 438.289 361.478 428.37 359.844 418.088C359.442 415.553 358.746 413.072 358.146 410.361C363.15 408.973 368.139 407.698 373.063 406.214C395.579 399.419 417.023 390.278 436.447 376.823C437.706 375.95 438.714 375.918 439.769 376.904C444.254 381.099 449.071 385 453.122 389.576C469.036 407.543 478.317 428.895 484.817 451.776C489.473 468.177 491.418 484.729 491.354 501.742C491.322 510.814 487.137 515.856 479.598 519.516C470.221 524.065 460.206 525.812 450.02 526.101C435.402 526.519 420.758 526.39 406.129 526.16C398.188 526.037 390.939 527.639 384.198 532.392H384.176ZM458.427 423.655C443.509 417.263 411.509 431.066 407.357 445.764C420.634 429.512 437.787 423.06 458.427 423.655ZM395.488 493.662C392.482 484.252 395.118 475.224 397.111 466.157C391.812 474.854 391.11 486.937 395.488 493.662Z" fill="#B7B7B7"/>
<path d="M369.12 403.09C362.807 404.579 356.795 406.208 350.698 407.403C302.237 416.866 254.232 414.84 206.944 400.662C195.724 397.297 185.104 391.928 174.183 387.534C172.469 386.848 172.254 385.938 172.753 384.244C174.939 376.786 179.242 371.593 186.968 369.252C189.765 368.405 192.412 366.567 194.7 364.665C199.293 360.844 203.36 356.376 208.064 352.711C215.978 346.543 224.225 340.799 232.584 334.69C234.566 340.697 237.91 345.236 243.445 345.198C249.109 345.166 253.246 341.072 255.877 335.446C256.675 335.671 257.677 335.885 258.636 336.228C268.978 339.958 277.953 345.755 285.401 353.884C287.689 356.386 290.181 358.712 292.351 361.311C301.728 372.531 313.773 378.704 328.112 380.976C336.305 382.278 344.412 384.126 352.005 387.706C358.521 390.776 364.013 395.041 368.021 401.102C368.348 401.6 368.605 402.141 369.125 403.09H369.12ZM242.808 348.386C242.722 349.131 242.765 349.924 242.529 350.621C241.591 353.37 241.029 356.402 239.475 358.765C235.515 364.794 228.447 364.477 224.6 358.347C223.764 357.013 223.223 355.497 222.5 353.964C222.601 359.167 226.057 363.7 230.585 364.702C234.625 365.592 238.778 363.213 241.098 358.599C241.618 357.571 241.961 356.451 242.358 355.368C242.631 354.613 242.85 353.841 243.263 352.56C244.935 357.635 247.587 361.246 251.595 363.749C257.436 367.392 265.468 364.879 268.029 358.289C263.41 363.074 258.524 365.613 252.324 362.275C246.81 359.301 244.651 354.034 242.808 348.392V348.386Z" fill="white"/>
<path d="M485.926 531.77C491.236 525.448 493.508 518.187 494.563 510.498C495.062 506.881 495.367 503.221 495.453 499.572C495.501 497.552 496.225 496.695 498.068 495.929C523.038 485.598 537.071 466.345 542.076 440.379C544.048 430.155 542.274 419.728 540.683 409.467C539.836 403.996 538.973 398.53 538.212 393.049C536.642 381.785 538.872 371.015 542.58 360.454C542.66 360.218 542.864 360.031 542.687 360.288C549.969 364.205 556.951 368.502 564.372 371.803C571.841 375.125 579.911 376.395 588.495 375.286C588.329 377.081 588.034 378.549 588.088 380.001C588.49 390.782 588.613 401.584 589.465 412.333C592.578 451.647 579.45 484.505 549.481 509.887C532.211 524.51 511.651 532.258 488.61 532.167C488.075 532.167 487.539 532.151 487.003 532.113C486.831 532.103 486.671 532.012 485.921 531.77H485.926Z" fill="#B7B7B7"/>
<path d="M264.82 432.738C266.304 434.79 267.627 436.687 269.037 438.514C269.492 439.109 270.178 439.532 270.757 440.03C271.298 439.382 272.053 438.814 272.353 438.064C273.977 434.013 275.451 429.898 277.069 425.836C277.621 424.448 278.446 423.168 279.228 421.678C278.06 420.301 276.817 418.827 275.177 416.893C302.966 418.409 329.982 416.443 357.063 410.474C361.425 431.082 355.011 449.579 346.507 467.24C336.691 487.634 320.943 502.192 299.065 509.608C294.671 503.033 289.977 496.764 287.978 489.129C286.06 481.809 284.506 474.393 282.797 467.02C282.529 467.036 282.261 467.052 281.993 467.068C281.789 467.395 281.43 467.717 281.414 468.054C281.184 473.118 281.002 478.187 280.803 483.25C280.739 484.874 279.973 485.683 278.264 485.614C274.909 485.48 269.037 480.775 268.463 477.512C266.282 465.123 264.209 452.719 262.012 440.33C261.481 437.34 262.098 434.892 264.82 432.727V432.738Z" fill="white"/>
<path d="M288.284 294.911C291.836 305.772 295.753 316.531 303.18 325.48C317.497 342.723 344.01 350.219 363.622 342.418C380.56 335.677 390.049 322.361 394.706 305.258C397.508 294.97 397.417 284.521 394.775 274.244C392.793 266.528 390.119 258.983 387.675 251.106C394.32 247.907 401.527 244.392 408.793 241.006C409.35 240.743 410.663 241.113 411.049 241.622C413.02 244.226 415.319 246.761 416.562 249.713C422.28 263.28 422.998 277.609 422.199 292.076C421.744 300.333 419.884 308.323 416.921 316.049C412.388 327.864 405.101 337.622 394.845 345.049C382.633 353.884 369.554 361 354.352 362.935C336.766 365.174 319.63 363.074 303.839 354.747C285.122 344.877 272.879 329.558 267.96 308.757C267.408 306.436 267.354 303.977 267.279 301.576C267.258 300.928 267.901 299.803 268.436 299.669C274.995 298.008 281.591 296.491 288.278 294.916L288.284 294.911Z" fill="#D5944A"/>
<path d="M342.853 103.768C365.765 95.1467 387.895 86.3965 410.341 78.5358C423.951 73.7723 431.008 76.3818 439.614 88.0415C451.515 104.159 459.563 122.222 464.803 141.502C466.673 148.376 467.992 155.412 469.326 162.421C470.156 166.782 470.231 171.294 471.201 175.613C472.155 179.84 473.816 183.902 475.145 187.958C465.275 191.731 455.491 195.471 445.213 199.398C442.288 194.308 439.083 188.864 436.056 183.323C435.616 182.52 435.777 181.196 436.056 180.226C443.225 155.197 439.523 131.08 429.953 107.482C425.87 97.4186 422.515 95.87 411.884 98.3188C397.138 101.711 383.475 107.701 370.47 115.337C369.875 115.685 368.889 115.937 368.327 115.691C360.739 112.352 353.195 108.923 345.65 105.488C344.868 105.135 344.171 104.593 342.848 103.774L342.853 103.768Z" fill="#B7B7B7"/>
<path d="M338.1 567.259C332.549 566.707 326.976 566.348 321.463 565.533C318.13 565.04 314.893 563.883 311.63 562.961C303.823 560.759 299.027 554.458 299.702 546.41C300.185 540.671 301.481 535.007 302.317 529.868C308.57 530.677 314.518 531.91 320.498 532.124C336.375 532.703 351.282 528.732 365.17 521.124C370.818 518.026 375.33 513.595 378.111 507.385C380.088 511.784 382.333 516.199 381.969 520.952C381.529 526.702 380.41 532.462 379.011 538.072C374.092 557.785 359.534 567.211 338.079 567.28C337.816 566.46 337.564 565.641 337.264 564.842C335.86 561.097 334.446 557.357 333.299 554.313C332.447 557.496 333.406 561.198 336.021 564.569C336.712 565.464 337.404 566.359 338.095 567.253L338.1 567.259ZM317.947 561.209V549.148C316.222 553.274 316.233 557.314 317.947 561.209Z" fill="white"/>
<path d="M140.27 228.746C137.021 224.71 134.015 221.117 131.225 217.359C130.776 216.754 131.157 215.375 131.4 214.413C136.317 195.017 142.419 175.834 145.88 156.176C149.178 137.432 154.497 119.694 162.827 102.762C164.351 99.6667 166.246 96.737 168.188 93.8874C170.692 90.2199 174.344 88.3594 178.694 89.0277C184.336 89.8938 190.02 90.8775 195.482 92.5188C207.395 96.0901 219.145 100.212 231.032 103.89C235.192 105.179 239.548 105.842 243.538 106.729C243.586 106.702 243.141 106.996 242.66 107.194C236.219 109.857 229.793 112.573 223.299 115.096C222.146 115.545 220.484 115.604 219.388 115.107C209.772 110.728 199.769 107.606 189.443 105.574C180.827 103.874 176.376 105.959 172.137 113.727C163.06 130.375 158.937 148.205 160.498 167.2C160.842 171.397 160.059 174.845 157.889 178.475C148.924 193.498 145.24 204.394 140.265 228.741L140.27 228.746Z" fill="#B7B7B7"/>
<path d="M489.232 517.1C487.742 520.192 486.585 523.503 484.683 526.311C482.395 529.681 479.823 533.03 476.763 535.688C459.456 550.723 439.662 560.052 416.359 560.368C409.977 560.454 403.525 559.897 397.213 558.938C390.515 557.92 384.525 555.064 381.031 548.768C380.399 547.626 380.442 545.922 380.645 544.551C380.908 542.809 381.797 541.169 382.162 539.428C383.105 534.916 386.154 532.419 390.151 530.801C396.747 528.133 403.509 527.388 410.62 528.352C422.96 530.024 435.375 529.767 447.791 529.145C452.5 528.91 457.259 529.178 461.92 528.62C470.912 527.549 478.713 523.396 486.054 518.305C486.847 517.754 487.619 517.164 488.396 516.591C488.675 516.762 488.953 516.928 489.232 517.1ZM395.895 545.22C394.539 549.046 394.513 552.647 396.517 556.81C396.286 552.561 396.093 548.971 395.895 545.22ZM410.186 557.668L411.097 557.357C410.363 554.415 409.628 551.468 408.889 548.526C408.632 548.591 408.375 548.655 408.112 548.714C408.803 551.699 409.489 554.678 410.18 557.662L410.186 557.668Z" fill="white"/>
<path d="M435.295 180.853C417.848 155.316 397.776 132.773 370.609 116.918C371.493 116.328 372.093 115.803 372.785 115.487C385.923 109.448 399.008 103.27 413.47 100.87C421.631 99.514 423.399 100.146 426.406 107.798C432.905 124.334 438.087 141.234 437.331 159.292C437.031 166.493 435.997 173.668 435.295 180.853Z" fill="#BC8585"/>
<path d="M247.298 551.366C245.985 551.076 244.592 550.974 243.375 550.46C238.039 548.21 234.443 544.802 236.174 538.147C235.901 538.179 235.622 538.216 235.349 538.248C235.145 540.215 234.947 542.176 234.722 544.368C231.389 541.999 229.074 539.341 229.278 534.953C229.476 530.597 229.519 526.208 229.213 521.857C229.004 518.883 228.093 515.963 227.552 513.321C233.227 515.465 238.858 517.924 244.688 519.73C260.645 524.686 275.338 521.139 289.093 512.416C291.863 510.658 297.237 512.373 298.197 515.459C299.767 520.518 299.75 525.662 299.006 530.832C298.647 533.303 297.988 535.73 297.688 538.206C296.739 546.098 291.552 550.283 284.667 552.539C274.797 555.77 264.669 555.995 254.532 553.696C252.051 553.134 249.661 552.196 247.228 551.43C246.805 548.386 246.381 545.348 245.867 541.662C245.417 545.487 244.945 548.654 247.298 551.366Z" fill="white"/>
<path d="M583.276 373.994C575.887 374.01 569.039 371.642 562.502 368.577C556.624 365.822 551.078 362.372 545.382 359.237C544.069 358.514 543.474 357.747 544.128 356.049C547.552 347.181 552.358 339.191 559.292 332.676C566.145 326.235 574.199 322.565 583.865 323.915C590.231 324.804 594.689 329.139 596.174 335.36C597.658 341.576 596.5 347.593 594.786 353.546C593.012 359.708 591.158 365.844 589.192 371.942C588.924 372.772 587.868 373.656 586.995 373.913C585.848 374.251 584.525 373.999 583.276 373.999V373.994Z" fill="white"/>
<path d="M139.82 243.996C144.343 247.109 148.72 250.126 153.318 253.293C152.52 254.938 151.775 256.61 150.917 258.228C145.055 269.32 142.403 281.29 141.519 293.662C140.179 312.395 152.38 332.237 169.463 339.996C185.773 347.401 209.538 340.762 213.396 315.969C214.419 309.389 214.987 302.74 215.791 295.913C219.199 296.781 223.126 297.74 227.016 298.844C227.429 298.962 227.879 299.932 227.852 300.489C227.295 313.579 224.477 325.989 216.273 336.604C203.333 353.344 183.507 356.95 165.567 345.762C148.115 334.879 138.411 318.841 134.95 298.806C131.852 280.867 133.23 263.243 138.99 245.968C139.183 245.389 139.461 244.837 139.815 244.001L139.82 243.996Z" fill="#D5944A"/>
<path d="M241.811 458.184C238.151 454.053 234.984 450.479 231.818 446.905C231.635 447.039 231.453 447.173 231.276 447.312C234.031 450.956 236.699 454.663 239.576 458.2C240.702 459.582 241.082 460.777 240.68 462.546C239.223 468.976 237.942 475.443 236.474 482.484C235.542 481.434 234.85 480.807 234.336 480.062C231.309 475.652 228.126 471.333 225.361 466.763C217.789 454.24 211.558 441.053 206.778 427.213C204.485 420.563 203.702 411.513 204.619 404.799C210.025 406.256 215.378 407.821 220.79 409.118C226.245 410.425 231.764 411.47 237.637 412.713C236.094 414.449 234.588 415.939 233.361 417.621C232.755 418.452 232.214 419.743 232.407 420.665C233.388 425.369 234.561 430.037 235.81 434.677C236.088 435.706 236.94 436.574 237.53 437.517C238.424 436.885 239.464 436.386 240.182 435.593C241.72 433.895 243.097 432.046 244.629 430.149C246.564 432.437 247.142 434.613 246.499 437.276C244.903 443.941 243.477 450.65 241.8 458.184H241.811Z" fill="white"/>
<path d="M220.088 117.046C196.222 130.239 176.771 148.093 161.623 171.6C161.372 169.858 161.104 168.856 161.093 167.849C160.932 150.402 163.161 133.496 172.008 117.995C177.779 107.889 181.39 105.88 192.713 108.634C201.715 110.82 210.513 113.826 219.397 116.489C219.617 116.553 219.783 116.8 220.088 117.052V117.046Z" fill="#BC8585"/>
<path d="M248.075 437.485C251.724 441.236 256.273 437.582 260.029 439.832C261.026 445.989 262.055 452.483 263.126 458.967C264.696 468.473 266.384 477.957 267.793 487.484C268.024 489.059 267.552 491.197 266.577 492.403C263.046 496.759 259.247 500.917 255.373 504.979C253.417 507.026 251.145 506.951 249.291 504.797C245.685 500.607 242.106 496.363 238.939 491.846C237.926 490.404 237.674 487.913 238.039 486.096C240.653 473.07 243.531 460.092 246.285 447.093C246.949 443.964 247.464 440.808 248.08 437.485H248.075Z" fill="#0E6BA8"/>
<path d="M284.731 513.262C276.908 517.924 269.23 520.432 260.779 519.998C249.886 519.44 239.394 517.163 229.535 512.319C227.681 511.408 226.433 510.262 225.859 508.107C221.112 490.264 216.187 472.464 211.461 454.615C209.688 447.917 208.311 441.118 206.751 434.361C207.009 434.28 207.266 434.2 207.528 434.114C207.882 435.02 208.284 435.904 208.589 436.826C214.355 454.337 224.198 469.624 234.593 484.622C235.129 485.394 235.836 486.374 235.761 487.189C235.51 489.868 236.715 491.856 238.312 493.72C241.505 497.444 244.613 501.249 247.989 504.801C251.081 508.054 252.565 508.016 256.37 505.723C256.98 505.359 258.063 505.332 258.743 505.605C262.135 506.966 265.382 508.767 268.849 509.86C272.814 511.113 276.962 511.799 281.034 512.7C282.031 512.919 283.049 513.01 284.726 513.257L284.731 513.262Z" fill="#B7B7B7"/>
<path d="M227.091 530.806C227.091 531.449 226.99 532.885 227.113 534.3C227.359 537.177 225.747 538.329 223.282 539.149C213.621 542.353 204.656 537.863 202.604 528.561C202.25 526.959 202.213 525.153 202.545 523.546C204.11 516.071 212.436 508.489 219.981 507.374C221.76 507.112 222.66 507.535 223.228 509.443C225.221 516.183 227.847 522.779 227.091 530.806ZM213.246 536.706C213.026 533.207 212.828 530.061 212.603 526.445C211.295 530.179 211.247 533.346 213.246 536.706Z" fill="white"/>
<path d="M237.905 434.709C236.426 429.898 234.947 425.07 233.463 420.237C233.409 420.071 233.291 419.813 233.361 419.733C235.113 417.627 236.795 415.452 238.724 413.517C239.239 413.003 240.546 413.089 241.457 413.19C251.209 414.289 260.94 415.564 270.703 416.523C274.138 416.861 275.327 419.476 277.095 421.592C277.299 421.839 277.047 422.589 276.849 423.034C274.754 427.653 272.632 432.255 270.43 437.04C268.763 435.122 266.995 433.091 265.232 431.055C262.424 427.824 259.59 424.614 256.82 421.346C255.196 419.433 253.755 420.119 252.27 421.485C247.555 425.831 242.84 430.166 237.905 434.704V434.709Z" fill="white"/>
<path d="M221.122 505.589C218.679 506.206 215.85 506.918 212.956 507.647C212.946 507.631 212.737 507.454 212.769 507.384C215.737 501.078 213.074 496.191 209.211 491.245C198.317 477.292 197.685 462.031 204.136 446.058C204.367 445.485 204.71 444.949 205.021 444.408C205.106 444.263 205.278 444.177 205.401 444.07C210.641 464.598 215.882 485.126 221.112 505.589H221.122Z" fill="#B7B7B7"/>
<path d="M295.566 509.748C283.092 509.512 274.931 502.52 267.429 495.018C268.324 492.687 269.422 490.801 269.722 488.797C270.028 486.755 269.551 484.596 269.396 482.142C271.668 483.406 273.629 484.617 275.686 485.63C279.946 487.72 281.886 486.423 281.939 481.724C281.966 479.291 282.282 476.864 282.808 474.415C285.396 486.814 288.68 498.876 295.56 509.753L295.566 509.748Z" fill="white"/>
<path d="M337.35 296.61C337.377 301.534 332.924 306.131 328.043 306.217C322.352 306.319 317.894 302.177 317.888 296.776C317.883 291.423 322.706 287.024 328.546 287.045C333.353 287.066 337.323 291.38 337.35 296.61Z" fill="white"/>
<path d="M152.391 299.1C152.445 294.916 155.863 291.754 160.3 291.786C164.758 291.819 168.375 295.35 168.396 299.685C168.418 304.196 164.758 307.963 160.364 307.952C155.713 307.942 152.332 304.191 152.396 299.1H152.391Z" fill="white"/>
<path d="M242.647 330.71C245.428 331.626 248.578 332.505 251.601 333.716C253.776 334.589 254.349 336.47 252.624 338.169C250.438 340.323 248.107 342.477 245.471 343.993C242.663 345.612 240.166 343.736 238.012 341.93C235.826 340.098 234.084 337.853 234.679 334.814C234.883 333.796 235.997 332.628 236.994 332.167C238.564 331.444 240.38 331.257 242.641 330.71H242.647Z" fill="#BC8585"/>
<path d="M254.682 420.837C257.816 424.384 260.849 427.819 263.871 431.237C262.36 433.118 261.331 434.881 259.852 436.081C258.84 436.907 257.216 437.164 255.828 437.292C254.092 437.453 251.638 437.914 250.711 437.008C248.739 435.074 247.507 432.357 246.092 429.893C245.91 429.571 246.285 428.687 246.66 428.328C249.221 425.863 251.847 423.468 254.682 420.837Z" fill="#0E6BA8"/>
<path d="M259.07 503.323C261.149 500.949 263.078 498.747 265.232 496.293C271.834 502.718 279.239 507.658 287.844 510.905C283.193 513.874 267.284 508.767 259.07 503.328V503.323Z" fill="white"/>
<path d="M223.587 214C224.321 207.195 224.68 200.32 225.902 193.601C227.204 186.447 230.023 179.776 234.491 173.882C235.354 172.741 235.783 171.139 236.04 169.687C238.992 152.663 247.11 138.147 259.842 126.975C269.251 118.723 278.891 110.209 291.011 105.628C295.003 104.117 301.739 104.61 305.441 106.748C305.313 106.812 305.173 106.946 305.077 106.919C297.543 104.765 290.545 105.799 284.34 110.686C276.645 116.746 268.479 122.356 261.572 129.22C250.09 140.628 242.304 154.356 239.796 170.689C239.534 172.409 239.019 174.268 238.055 175.672C229.439 188.259 226.888 202.308 227.745 217.215C227.874 219.439 228.088 221.668 228.388 223.875C229.149 229.496 228.828 234.978 227.724 240.593C225.307 252.902 227.949 264.754 232.38 276.226C234.165 280.851 236.587 285.234 238.607 289.901C237.46 288.411 236.002 287.066 235.226 285.405C232.182 278.879 229.438 272.213 226.395 265.687C225.339 263.42 224.091 261.009 222.29 259.369C217.516 255.018 211.59 253.105 205.224 252.5C212.683 251.524 219.07 253.732 224.809 259.626C224.52 256.749 224.112 254.52 224.112 252.291C224.118 248.106 223.919 243.851 224.621 239.763C225.516 234.576 225.688 229.512 224.862 224.342C224.311 220.918 224.011 217.451 223.598 214H223.587Z" fill="#05253B"/>
<path d="M169.559 249.526C175.887 246.617 179.124 241.081 182.757 235.616C189.128 226.041 203 222.081 213.824 226.019C215.839 226.753 217.666 227.991 219.451 229.218C207.008 224.101 195.681 225.489 186.374 235.423C177.109 245.309 177.618 257.017 181.642 269.052C177.179 261.379 176 253.25 178.122 244.532C175.426 246.574 172.919 248.476 170.411 250.378C170.127 250.094 169.838 249.815 169.554 249.531L169.559 249.526Z" fill="#05253B"/>
<path d="M230.569 232.946C233.473 227.433 238.564 225.15 244.233 224.228C256.991 222.16 268.131 225.75 277.213 234.945C283.477 241.284 284.554 249.906 280.503 257.107C280.294 257.477 280.032 257.809 279.512 258.05C279.855 256.882 280.214 255.719 280.541 254.541C282.347 247.961 281.077 241.943 276.179 237.271C266.566 228.097 255.11 224.159 241.827 226.65C237.433 227.476 233.597 229.517 230.564 232.941L230.569 232.946Z" fill="#05253B"/>
<path d="M250.127 203.321C248.568 197.121 250.025 191.548 254.564 187.031C256.809 184.797 259.563 183.023 262.248 181.293C264.916 179.567 266.609 177.413 266.695 174.155C266.829 168.974 269.24 165.207 273.704 162.624C275.161 161.783 276.501 160.706 277.83 159.661C283.718 155.026 285.519 151.602 286.478 144.213C286.612 145.676 286.976 147.155 286.837 148.591C286.43 152.867 284.335 156.403 281.28 159.281C278.757 161.66 276.002 163.798 273.275 165.952C271.196 167.591 269.787 169.595 269.733 172.264C269.615 178.297 266.599 182.08 261.251 184.69C253.637 188.408 249.848 194.678 250.127 203.326V203.321Z" fill="#05253B"/>
<path d="M332.988 256.572C330.893 260.618 328.793 264.663 326.698 268.709C326.483 268.607 326.269 268.505 326.055 268.403C327.024 266.046 328.069 263.72 328.943 261.325C333.262 249.499 330.481 238.761 321.173 230.873C316.056 226.539 310.408 225.151 304.005 227.53C303.426 227.744 302.826 227.894 302.231 228.055C302.172 228.071 302.081 227.975 301.771 227.787C307 224.518 312.305 223.833 317.867 226.303C328.509 231.029 334.489 242.078 332.801 253.62C332.661 254.584 332.951 255.613 333.036 256.615L332.983 256.561L332.988 256.572Z" fill="#05253B"/>
<path d="M417.88 199.473C417.639 199.114 417.387 198.766 417.162 198.401C414.055 193.359 410.159 191.473 404.87 192.448C399.346 193.466 395.343 197.774 393.966 202.854C392.857 206.959 390.756 210.795 389.101 214.734C392.155 214.926 395.59 215.719 397.883 219.026C393.312 215.612 388.367 215.634 383.142 218.002L382.896 216.93C383.405 216.33 383.855 215.671 384.428 215.146C387.702 212.156 390.376 208.754 391.898 204.537C393.382 200.427 393.232 196.317 392.193 192.025C392.632 192.979 393.136 193.906 393.495 194.892C393.854 195.872 394.063 196.906 394.432 198.273C398.574 192.646 403.488 188.987 410.647 190.985C414.74 192.127 417.098 195.143 417.87 199.484L417.88 199.473Z" fill="#05253B"/>
<path d="M350.435 217.434C351.812 216.245 353.168 215.034 354.572 213.876C365.599 204.799 367.748 189.812 359.769 177.836C357.353 174.209 353.998 172.103 349.835 171.117C353.591 170.817 356.726 172.231 359.367 174.809C370.122 185.284 369.216 204.017 357.497 213.249C355.365 214.927 353.066 216.384 350.842 217.943L350.435 217.429V217.434Z" fill="#05253B"/>
<path d="M296.996 175.607C305.58 176.122 313.532 178.399 319.941 184.39C328.691 192.561 329.661 206.755 321.661 215.918C322.336 214.241 322.759 213.207 323.177 212.167C327.775 200.711 324.677 189.646 314.347 182.873C310.317 180.232 305.527 178.747 301.047 176.818C299.761 176.266 298.347 176.004 296.996 175.607Z" fill="#05253B"/>
<path d="M394.347 173.571C391.935 173.003 390.317 172.521 388.661 172.258C381.385 171.096 375.191 174.975 372.672 182.209C370.904 187.294 370.941 192.534 371.274 197.812C371.472 201 371.574 204.199 371.456 207.404C370.122 200.068 368.439 192.759 369.537 185.236C371.3 173.217 382.767 167.018 392.927 172.542C393.232 172.708 393.495 172.95 394.347 173.571Z" fill="#05253B"/>
<path d="M290.159 145.912C296.305 142.975 302.306 141.491 308.661 142.209C316.635 143.109 324.152 145.66 331.091 149.673C335.105 151.994 338.202 155.364 340.233 159.576C341.32 161.826 341.98 164.194 340.779 166.847C340.908 161.306 337.923 157.55 334.14 154.389C322.277 144.497 308.903 141.138 293.856 145.462C292.913 145.73 291.96 145.944 291.006 146.174C290.931 146.19 290.84 146.126 290.159 145.912Z" fill="#05253B"/>
<path d="M232.905 149.33C217.029 155.899 207.282 167.114 205.873 184.824C202.566 169.981 216.879 151.109 232.905 149.33Z" fill="#05253B"/>
<path d="M241.441 120.814C244.988 121.666 248.412 121.859 250.465 125.518C246.28 124.002 242.749 121.194 238.076 123.177C241.864 112.835 259.027 105.21 269.251 109.052C257.95 107.975 249.286 112.915 241.441 120.814Z" fill="#05253B"/>
<path d="M204.71 192.422C203.97 189.797 203.429 187.176 202.502 184.701C198.478 173.92 188.769 171.128 179.654 178.056C178.422 178.994 177.211 179.964 175.614 181.218C177.607 175.576 186.577 171.064 192.375 172.328C200.08 174.011 205.514 182.82 204.71 192.422Z" fill="#05253B"/>
<path d="M365.931 144.191C365.444 130.259 357.422 121.975 340.533 117.592C354.743 115.567 370.288 131.599 365.931 144.191Z" fill="#05253B"/>
<path d="M279.641 130.533C291.788 124.601 304.246 121.166 317.701 125.657C304.546 123.567 292.094 127.071 279.641 130.533Z" fill="#05253B"/>
<path d="M261.781 285.952C253.567 285.298 247.405 278.396 248.235 270.889C248.761 266.158 249.848 261.485 250.679 256.786C250.899 256.802 251.118 256.824 251.333 256.84C251.204 258.72 251.129 260.607 250.941 262.482C250.727 264.609 250.432 266.737 250.127 268.853C249.162 275.594 251.826 280.481 257.698 283.733C258.92 284.408 260.147 285.067 261.776 285.946L261.781 285.952Z" fill="#05253B"/>
<path d="M369.462 140.366C371.397 138.271 373.642 138.024 375.651 139.155C377.768 140.35 379.863 141.904 381.363 143.784C385.816 149.362 387.252 156.189 388.351 163.112C387.584 161.108 386.968 159.029 386.02 157.111C383.748 152.497 381.637 147.76 378.866 143.452C376.423 139.648 373.647 139.058 369.457 140.36L369.462 140.366Z" fill="#05253B"/>
<path d="M336.557 109.421C328.305 103.077 318.778 103.323 308.828 104.031C316.71 99.4976 331.311 102.407 336.557 109.421Z" fill="#05253B"/>
<path d="M223.593 213.994C216.493 214.375 209.393 214.771 202.293 215.114C201.757 215.141 201.2 214.836 200.654 214.685C200.616 214.385 200.578 214.085 200.541 213.78C202.829 213.346 205.176 213.11 207.384 212.43C209.741 211.701 211.97 210.554 214.885 209.327C213.476 210.533 212.49 211.379 211.317 212.376C215.501 212.928 219.542 213.464 223.587 213.994H223.593Z" fill="#05253B"/>
<path d="M333.036 256.625C335.721 253.962 338.331 251.23 341.111 248.674C342.467 247.425 344.134 246.52 346.073 245.169C343.914 244.998 342.205 244.864 340.501 244.73C340.501 244.655 340.501 244.58 340.501 244.505C343.501 244.114 346.502 243.723 349.862 243.283C349.567 244.13 349.545 244.773 349.229 245.003C343.834 248.888 338.406 252.725 332.983 256.572L333.031 256.625H333.036Z" fill="#05253B"/>
<path d="M307.22 258.527C302.66 262.482 299.129 262.862 294.323 259.947C291.97 258.522 289.655 258.425 287.175 259.326C286.29 259.647 285.401 259.963 284.453 260.07C287.287 257.916 290.518 256.052 293.883 258.088C298.4 260.821 302.649 261.089 307.22 258.527Z" fill="#05253B"/>
<path d="M277.578 208.53C281.259 201.269 293.915 197.138 296.98 201.773C289.313 199.908 283.343 203.246 277.578 208.53Z" fill="#05253B"/>
<path d="M361.42 220.811C363.183 224.47 361.698 228.2 361.302 232.052C363.724 232.69 366.06 233.306 368.402 233.928L368.284 234.485C366.065 234.233 363.842 234.03 361.634 233.724C359.442 233.419 359.657 231.87 359.919 230.273C360.444 227.139 360.916 223.999 361.414 220.816L361.42 220.811Z" fill="#05253B"/>
<path d="M206.071 276.783C210.915 275.856 215.759 274.924 220.603 273.997L220.779 274.485C218.122 276.382 215.464 278.278 212.544 280.368C213.294 279.2 213.921 278.225 214.735 276.955H206.049C206.055 276.901 206.06 276.842 206.065 276.789L206.071 276.783Z" fill="#05253B"/>
<path d="M274.202 197.609C281.205 198.691 287.024 197.33 292.495 193.301C289.425 198.622 280.798 200.727 274.202 197.609Z" fill="#05253B"/>
<path d="M156.785 245.073C154.095 239.13 155.477 230.836 159.652 226.844C156.613 232.411 156.538 238.477 156.785 245.073Z" fill="#05253B"/>
<path d="M408.418 164.473C405.963 158.804 403.761 153.617 398.387 150.236C403.579 151.217 408.059 157.577 408.418 164.473Z" fill="#05253B"/>
<path d="M167.159 185C165.122 180.151 165.305 174.884 167.882 169.911C167.641 174.969 167.389 180.221 167.159 185Z" fill="#05253B"/>
<path d="M421.771 201.323C423.121 195.407 426.068 190.922 429.899 188.73C427.295 192.765 424.477 197.127 421.771 201.323Z" fill="#05253B"/>
<path d="M165.723 212.044C166.66 216.1 167.743 220.778 168.702 224.92C165.803 222.203 164.308 215.57 165.723 212.044Z" fill="#05253B"/>
<path d="M251.284 146.077C256.878 148.065 260.485 151.452 263.373 155.738C259.52 152.657 255.662 149.576 251.284 146.077Z" fill="#05253B"/>
<path d="M413.915 178.882C410.588 175.752 409.125 171.771 409.575 167.12C411.022 171.042 412.49 175.024 413.915 178.882Z" fill="#05253B"/>
<path d="M181.021 194.64C181.948 199.146 182.826 203.427 183.759 207.944C180.983 203.813 180.195 199.516 181.021 194.64Z" fill="#05253B"/>
<path d="M202.942 251.219C206.58 250.319 210.213 249.419 213.851 248.519C213.926 248.808 214.001 249.092 214.076 249.381C210.454 250.319 206.837 251.262 203.215 252.2C203.124 251.873 203.027 251.546 202.936 251.219H202.942Z" fill="#05253B"/>
<path d="M153.672 224.593C150.221 221.319 148.624 217.917 148.394 213.85C150.033 217.182 151.668 220.515 153.672 224.593Z" fill="#05253B"/>
<path d="M339.027 138.077C335.7 140.778 332.913 143.034 330.132 145.289C331.767 141.662 334.757 139.658 339.027 138.077Z" fill="#05253B"/>
<path d="M223.866 292.853C225.527 290.661 227.268 288.523 228.812 286.257C229.422 285.356 229.605 284.167 230.06 282.881C230.467 287.725 227.74 291.985 223.86 292.869V292.858L223.866 292.853Z" fill="#05253B"/>
<path d="M314.882 173.663C313.254 170.603 313.318 167.592 314.882 164.168V173.663Z" fill="#05253B"/>
<path d="M458.427 423.655C437.787 423.06 420.635 429.512 407.357 445.764C411.509 431.066 443.509 417.263 458.427 423.655Z" fill="#05253B"/>
<path d="M395.482 493.667C391.11 486.943 391.807 474.86 397.106 466.163C395.107 475.229 392.471 484.258 395.482 493.667Z" fill="#05253B"/>
<path d="M242.808 348.386C244.651 354.034 246.81 359.296 252.324 362.27C258.518 365.613 263.41 363.068 268.029 358.283C265.468 364.874 257.436 367.387 251.595 363.743C247.582 361.241 244.935 357.629 243.263 352.555C242.85 353.836 242.631 354.607 242.357 355.363C241.961 356.45 241.613 357.565 241.098 358.594C238.778 363.207 234.631 365.586 230.585 364.697C226.057 363.695 222.601 359.162 222.499 353.959C223.223 355.491 223.764 357.013 224.6 358.342C228.447 364.472 235.515 364.783 239.475 358.76C241.029 356.397 241.586 353.364 242.529 350.615C242.765 349.919 242.722 349.131 242.808 348.381V348.386Z" fill="#05253B"/>
<path d="M338.1 567.259C337.409 566.364 336.718 565.469 336.026 564.574C333.411 561.204 332.452 557.501 333.304 554.318C334.451 557.362 335.866 561.102 337.269 564.847C337.57 565.646 337.821 566.46 338.084 567.286C338.073 567.302 338.1 567.264 338.1 567.264V567.259Z" fill="#05253B"/>
<path d="M317.947 561.209C316.233 557.319 316.222 553.273 317.947 549.147V561.209Z" fill="#05253B"/>
<path d="M395.895 545.22C396.099 548.971 396.292 552.561 396.517 556.81C394.513 552.646 394.534 549.046 395.895 545.22Z" fill="#05253B"/>
<path d="M410.186 557.667C409.495 554.683 408.809 551.703 408.118 548.719C408.375 548.655 408.632 548.59 408.895 548.531C409.629 551.473 410.363 554.42 411.102 557.362L410.191 557.673L410.186 557.667Z" fill="#05253B"/>
<path d="M247.298 551.366C244.945 548.655 245.417 545.488 245.867 541.662C246.381 545.349 246.805 548.392 247.228 551.436L247.298 551.371V551.366Z" fill="#05253B"/>
<path d="M213.24 536.706C211.236 533.346 211.29 530.184 212.597 526.444C212.822 530.061 213.021 533.207 213.24 536.706Z" fill="#05253B"/>
</svg>
