<svg width="22" height="22" viewBox="0 0 22 22" fill="none" xmlns="http://www.w3.org/2000/svg">
<path d="M13.8947 11.5796C12.6213 11.5796 11.5791 12.6228 11.5791 13.8951V19.6844C11.5791 20.9577 12.6224 21.9999 13.8947 21.9999H19.6843C20.9577 21.9999 21.9999 20.9567 21.9999 19.6844V13.8951C21.9999 12.6217 20.9566 11.5796 19.6843 11.5796H13.8947ZM16.7901 14.4748C16.9431 14.4748 17.0908 14.5356 17.1994 14.6441C17.3079 14.7527 17.3687 14.9003 17.3687 15.0534C17.3687 15.2065 17.3079 15.3541 17.1994 15.4627C17.0908 15.5712 16.9431 15.632 16.7901 15.632C16.4698 15.632 16.2114 15.3737 16.2114 15.0534C16.2114 14.7332 16.4698 14.4748 16.7901 14.4748ZM14.4745 16.2117H19.1068H19.1057C19.2599 16.2117 19.4064 16.2725 19.515 16.381C19.6236 16.4896 19.6854 16.6372 19.6854 16.7903C19.6854 16.9434 19.6236 17.091 19.515 17.1996C19.4064 17.3081 19.2599 17.3689 19.1057 17.3689H14.4734H14.4745C14.1542 17.3689 13.8947 17.1106 13.8947 16.7903C13.8947 16.4701 14.1542 16.2117 14.4745 16.2117ZM16.7901 17.9486C16.9431 17.9486 17.0908 18.0094 17.1994 18.1179C17.3079 18.2265 17.3687 18.3741 17.3687 18.5272C17.3687 18.6803 17.3079 18.8279 17.1994 18.9365C17.0908 19.045 16.9431 19.1058 16.7901 19.1058C16.4698 19.1058 16.2114 18.8475 16.2114 18.5272C16.2114 18.207 16.4698 17.9486 16.7901 17.9486Z" fill="#ED4C5C"/>
<path d="M2.31561 11.5796C1.04219 11.5796 0 12.6228 0 13.8951V19.6844C0 20.9577 1.04328 21.9999 2.31561 21.9999H8.1052C9.37863 21.9999 10.4208 20.9567 10.4208 19.6844V13.8951C10.4208 12.6217 9.37754 11.5796 8.1052 11.5796H2.31561ZM3.57275 14.5735C3.72582 14.5735 3.87346 14.6353 3.98204 14.7439L5.20988 15.9717L6.43772 14.7439H6.43881C6.54737 14.6353 6.69393 14.5735 6.8481 14.5735C7.00117 14.5735 7.14881 14.6353 7.25739 14.7439C7.4832 14.9697 7.4832 15.3355 7.25739 15.5624L6.02955 16.7902L7.25739 18.018C7.4832 18.2448 7.4832 18.6107 7.25739 18.8365C7.03049 19.0633 6.66465 19.0633 6.43884 18.8365L5.21099 17.6087L3.98207 18.8375C3.75626 19.0633 3.39041 19.0633 3.16352 18.8375C2.93771 18.6107 2.93771 18.2448 3.16352 18.019L4.39136 16.7913L3.16352 15.5635V15.5624C2.93771 15.3366 2.93771 14.9697 3.16352 14.7439C3.27208 14.6353 3.41972 14.5745 3.57281 14.5745L3.57275 14.5735Z" fill="#ED4C5C"/>
<path d="M13.8947 0C12.6213 0 11.5791 1.04322 11.5791 2.3155V8.10479C11.5791 9.37815 12.6224 10.4203 13.8947 10.4203H19.6843C20.9577 10.4203 21.9999 9.37707 21.9999 8.10479V2.3155C21.9999 1.04214 20.9566 0 19.6843 0H13.8947ZM14.4733 4.63211H19.1057C19.2598 4.63211 19.4064 4.6929 19.515 4.80145C19.6236 4.91001 19.6854 5.05765 19.6854 5.21072C19.6854 5.36487 19.6235 5.51142 19.515 5.61999C19.4064 5.72857 19.2599 5.79043 19.1057 5.79043H14.4733H14.4744C14.1542 5.79043 13.8947 5.53098 13.8947 5.21075C13.8947 4.8916 14.1542 4.63215 14.4744 4.63215L14.4733 4.63211Z" fill="#ED4C5C"/>
<path d="M2.31561 0C1.04219 0 0 1.04322 0 2.3155V8.10479C0 9.37815 1.04328 10.4203 2.31561 10.4203H8.1052C9.37863 10.4203 10.4208 9.37707 10.4208 8.10479V2.3155C10.4208 1.04214 9.37754 0 8.1052 0H2.31561ZM5.20988 2.31658C5.36404 2.31658 5.51059 2.37737 5.61917 2.48593C5.72775 2.59449 5.78961 2.74213 5.78961 2.8952V4.6321H7.5266C7.67967 4.6321 7.82731 4.69289 7.93589 4.80145C8.04447 4.91001 8.10525 5.05765 8.10525 5.21072C8.10525 5.36487 8.04445 5.51141 7.93589 5.61999C7.82733 5.72857 7.67968 5.79042 7.5266 5.79042H5.78961V7.52732C5.78961 7.68039 5.72773 7.82802 5.61917 7.93659C5.51061 8.04517 5.36405 8.10594 5.20988 8.10594C4.89072 8.10594 4.63125 7.84649 4.63125 7.52735V5.79044H2.89426C2.57402 5.79044 2.31564 5.531 2.31564 5.21076C2.31564 4.89162 2.57402 4.63217 2.89426 4.63217H4.63125V2.89527C4.63125 2.57504 4.89072 2.31658 5.20988 2.31658Z" fill="#ED4C5C"/>
</svg>
