<svg width="25" height="25" viewBox="0 0 25 25" fill="none" xmlns="http://www.w3.org/2000/svg">
<path d="M9.74255 12.9644H1.80894C0.811443 12.9644 0 13.8098 0 14.8491V23.1152C0 24.1545 0.811443 25 1.80894 25H9.74255C10.74 25 11.5515 24.1545 11.5515 23.1152V14.8491C11.5514 13.8098 10.74 12.9644 9.74255 12.9644ZM10.922 23.1152C10.922 23.7928 10.3929 24.3441 9.74251 24.3441H1.80894C1.15855 24.3441 0.62949 23.7928 0.62949 23.1152V14.8491C0.62949 14.1715 1.15855 13.6202 1.80894 13.6202H9.74255C10.3929 13.6202 10.922 14.1715 10.922 14.8491L10.922 23.1152Z" fill="#0E6BA8"/>
<path d="M7.10589 18.4341C7.65889 18.178 7.96198 17.8572 7.96198 17.1262C7.96198 16.2281 7.38042 15.5237 5.90882 15.5237H3.64746V21.5785H6.19116C7.70385 21.5785 8.28655 20.8045 8.28655 19.8978C8.28655 19.121 7.81491 18.5938 7.10589 18.4341ZM4.62855 16.4678H5.88382C6.50827 16.4678 6.93952 16.6368 6.93952 17.2821C6.93952 17.7845 6.58503 18.0357 5.87566 18.0357H4.62859L4.62855 16.4678ZM6.16659 20.6345H4.62855V18.9798H6.04159C6.86737 18.9798 7.28046 19.2484 7.28046 19.7856C7.28046 20.4778 6.83593 20.6345 6.16659 20.6345Z" fill="#0E6BA8"/>
<path d="M16.4479 12.0356C17.4454 12.0356 18.2568 11.1902 18.2568 10.1511V1.88455C18.2568 0.845427 17.4454 0 16.4479 0H8.51426C7.51676 0 6.70532 0.845468 6.70532 1.88455V10.151C6.70532 11.1902 7.51676 12.0356 8.51426 12.0356L16.4479 12.0356ZM7.33481 10.151V1.88455C7.33481 1.20713 7.86387 0.655845 8.51426 0.655845H16.4479C17.0983 0.655845 17.6273 1.20709 17.6273 1.88455V10.151C17.6273 10.8284 17.0983 11.3797 16.4479 11.3797H8.51426C7.86387 11.3797 7.33481 10.8285 7.33481 10.151Z" fill="#0E6BA8"/>
<path d="M11.0264 7.23685H13.9361L14.5181 8.61415H15.5655L13.005 2.55933H11.9575L9.39697 8.61415H10.4445L11.0264 7.23685ZM12.4813 3.79804L13.5374 6.29277H11.4256L12.4813 3.79804Z" fill="#0E6BA8"/>
<path d="M23.191 12.9644H15.2574C14.2599 12.9644 13.4485 13.8098 13.4485 14.8491V23.1152C13.4485 24.1545 14.2599 25 15.2574 25H23.191C24.1885 25 25 24.1545 25 23.1152V14.8491C24.9999 13.8098 24.1885 12.9644 23.191 12.9644ZM24.3704 23.1152C24.3704 23.7928 23.8414 24.3441 23.191 24.3441H15.2574C14.607 24.3441 14.078 23.7928 14.078 23.1152V14.8491C14.078 14.1715 14.6071 13.6202 15.2574 13.6202H23.191C23.8414 13.6202 24.3705 14.1715 24.3705 14.8491L24.3704 23.1152Z" fill="#0E6BA8"/>
<path d="M19.6983 16.3809C20.4015 16.3809 20.8341 16.6077 21.3527 17.1261L21.976 16.4157C21.3719 15.7227 20.6195 15.3762 19.7187 15.3762C17.8897 15.3762 16.5972 16.7378 16.5972 18.5292C16.5972 20.3727 17.9195 21.6476 19.6524 21.6476C20.531 21.6476 21.2777 21.2927 21.8928 20.5822L21.2613 19.9067C20.6608 20.4919 20.217 20.6514 19.6233 20.6514C18.576 20.6514 17.6197 19.7738 17.6197 18.4904C17.6197 17.2261 18.5476 16.3809 19.6983 16.3809Z" fill="#0E6BA8"/>
</svg>
