<svg width="14" height="34" viewBox="0 0 14 34" fill="none" xmlns="http://www.w3.org/2000/svg">
<path d="M4.25092 9.35165C3.78073 9.35165 3.40137 9.7326 3.40137 10.2012C3.40137 10.6714 3.78232 11.0508 4.25092 11.0508H5.10047V17.0009H5.95002C6.42022 17.0009 6.79958 17.3818 6.79958 17.8504C6.79958 18.3206 6.41863 18.7 5.95002 18.7H5.10047V20.4007H5.95002C6.42022 20.4007 6.79958 20.7817 6.79958 21.2503C6.79958 21.7205 6.41863 22.0998 5.95002 22.0998H5.10047V23.8006H5.95002C6.42022 23.8006 6.79958 24.1815 6.79958 24.6501C6.79958 25.1203 6.41863 25.4997 5.95002 25.4997H5.10047V27.2004H5.95002C6.42022 27.2004 6.79958 27.5814 6.79958 28.05C6.79958 28.5202 6.41863 28.8995 5.95002 28.8995H5.10047V30.6002C5.10047 32.4683 6.63224 34.0001 8.50031 34.0001C10.3684 34.0001 11.9002 32.4683 11.9002 30.6002V11.0475H12.7497C13.2199 11.0475 13.5993 10.6665 13.5993 10.1979C13.5993 9.72775 13.2183 9.34839 12.7497 9.34839L4.25092 9.35165ZM6.80121 11.0524H10.201C9.96196 12.8471 11.1638 15.5535 8.97214 14.5957C8.41585 14.2243 7.82769 14.0442 7.25867 13.9996C7.10406 13.9868 6.95104 13.9868 6.80121 13.9932V11.0524Z" fill="#76129D"/>
<path d="M7.65093 4.25098C6.72169 4.25098 5.9502 5.02243 5.9502 5.95171C5.9502 6.88096 6.72165 7.65245 7.65093 7.65245C8.58017 7.65245 9.35167 6.881 9.35167 5.95171C9.35167 5.02247 8.58022 4.25098 7.65093 4.25098Z" fill="#76129D"/>
<path d="M2.55029 0C1.1524 0 0 1.1524 0 2.55029C0 3.94817 1.1524 5.10058 2.55029 5.10058C3.94817 5.10058 5.10058 3.94817 5.10058 2.55029C5.10058 1.1524 3.94817 0 2.55029 0Z" fill="#76129D"/>
</svg>
